<?xml version="1.0" encoding="utf-8"?>
<!-- Generator: Adobe Illustrator 17.0.0, SVG Export Plug-In . SVG Version: 6.00 Build 0)  -->
<!DOCTYPE svg PUBLIC "-//W3C//DTD SVG 1.1//EN" "http://www.w3.org/Graphics/SVG/1.1/DTD/svg11.dtd">
<svg version="1.1" id="InteractiveSVG" xmlns="http://www.w3.org/2000/svg" xmlns:xlink="http://www.w3.org/1999/xlink" x="0px"
	 y="0px" width="663px" height="1061px" viewBox="0 0 663 1061" enable-background="new 0 0 663 1061" xml:space="preserve">
<g id="timelineSVG">
	<g id="htl">
		<g id="htl-line">
			<polygon fill="#AA8C65" points="338.985,946.521 310.858,930.282 338.985,914.042 			"/>
			<rect x="322.876" y="830.282" fill="#AA8C65" width="17" height="200"/>
		</g>
		
			<text id="htl-date" transform="matrix(1 0 0 1 378.0717 938.5306)" fill="#AA8C65" font-family="'Roboto-Medium'" font-size="28.2251">2014 - TODAY</text>
		<g id="htl-badge">
			<circle id="htl-circle" fill="#AA8C65" cx="130.957" cy="930.282" r="130.5"/>
			<g id="htl-title">
				<text transform="matrix(1 0 0 1 107.0562 849.2885)" fill="#FFFFFF" font-family="'Roboto-Bold'" font-size="35">HTL Villach</text>
			</g>
			<g id="htl-details">
				<rect x="35.85" y="976.182" fill="none" width="187" height="68"/>
				<text transform="matrix(1 0 0 1 46.0615 989.4115)" fill="#EBF4CE" font-family="'Roboto-Bold'" font-size="18">Media </text>
				<text transform="matrix(1 0 0 1 100.4135 989.4115)" fill="#EBF4CE" font-family="'Roboto-Light'" font-size="18">Engineering</text>
				<g id="htl-icon">
					<rect x="68.449" y="888.087" fill="#414042" width="125.015" height="72.242"/>
					<circle fill="#D1D3D4" cx="145.323" cy="924.207" r="31.277"/>
					<rect x="68.449" y="888.087" fill="#D1D3D4" width="125.015" height="13.681"/>
					<rect x="68.449" y="946.648" fill="#D1D3D4" width="125.015" height="13.681"/>
					<circle fill="#22363F" cx="145.323" cy="924.207" r="26.654"/>
					<circle fill="#4E7387" stroke="#578CA3" stroke-width="5" stroke-miterlimit="10" cx="145.323" cy="924.207" r="19.257"/>
					<circle fill="#204856" cx="145.323" cy="924.207" r="10.464"/>
					<circle fill="#092830" cx="145.323" cy="924.207" r="6.612"/>
					<path fill="#D1D3D4" d="M169.07,894.202c0,1.277-1.075,2.312-2.4,2.312h-41.282c-1.325,0-2.4-1.035-2.4-2.312v-15.974
						c0-1.276,1.074-2.312,2.4-2.312h41.282c1.325,0,2.4,1.035,2.4,2.312V894.202z"/>
					<circle opacity="0.6" fill="#FFFFFF" enable-background="new    " cx="133.115" cy="911.89" r="6.497"/>
					<circle opacity="0.6" fill="#FFFFFF" enable-background="new    " cx="139.289" cy="920.027" r="2.067"/>
					<path fill="#4E7387" d="M165.392,887.436c0,1.276-1.035,2.311-2.312,2.311h-19.413c-1.276,0-2.312-1.035-2.312-2.311v-6.935
						c0-1.277,1.036-2.312,2.312-2.312h19.413c1.277,0,2.312,1.035,2.312,2.312V887.436z"/>
					<path fill="#22363F" d="M137.222,882.659c0,1.276-1.035,2.311-2.312,2.311h-4.063c-1.277,0-2.312-1.035-2.312-2.311v-1.233
						c0-1.277,1.035-2.312,2.312-2.312h4.063c1.277,0,2.312,1.035,2.312,2.312V882.659z"/>
					<circle fill="#BE1E2D" cx="134.859" cy="888.245" r="1.618"/>
					<rect x="79.322" y="883.968" fill="#939598" width="15.365" height="4.118"/>
					<rect x="183.397" y="888.087" opacity="0.3" fill="#939598" enable-background="new    " width="10.067" height="72.165"/>
					<rect x="68.449" y="888.087" opacity="0.3" fill="#939598" enable-background="new    " width="5.034" height="72.165"/>
				</g>
			</g>
		</g>
	</g>
	<g id="usa">
		<g id="usa-line">
			<rect x="322.876" y="630.386" fill="#88CDD8" width="17" height="200"/>
			<polygon fill="#88CDD8" points="322.876,746.625 351.003,730.386 322.876,714.146 			"/>
		</g>
		
			<text id="usa-date" transform="matrix(1 0 0 1 132.9571 738.6335)" fill="#88CDD8" font-family="'Roboto-Medium'" font-size="28.2251">2013 - 2014</text>
		<g id="usa-badge">
			<circle id="usa-circle" fill="#88CDD8" cx="532.043" cy="730.386" r="130.5"/>
			<g id="usa-title">
				<text transform="matrix(1 0 0 1 503.507 649.3919)" fill="#FFFFFF" font-family="'Roboto-Bold'" font-size="35">USA</text>
			</g>
			<g id="usa-details">
				<rect x="437.511" y="776.286" fill="none" width="187" height="68"/>
				<text transform="matrix(1 0 0 1 451.2166 789.5148)" fill="#3E2723" font-family="'Roboto-Light'" font-size="18">Exchange Year</text>
				<text transform="matrix(1 0 0 1 458.2992 811.1164)" fill="#3E2723" font-family="'Roboto-Bold'" font-size="18">Columbia, MD</text>
				<g id="usa-icon">
					<path fill="#FFFFFF" d="M603.333,748.074c-48.852-24.142-93.729,24.142-142.58,0c0-25.105,0-50.209,0-75.314
						c41.594,27.545,93.728-24.142,142.58,0C603.333,697.865,603.333,722.97,603.333,748.074z"/>
					<path fill="#D94C5A" d="M603.333,748.074c-48.852-24.142-93.729,24.142-142.58,0c0-2.949,0-4.423,0-7.372
						c48.852,24.142,93.728-24.142,142.58,0C603.333,743.651,603.333,745.126,603.333,748.074z"/>
					<path fill="#D94C5A" d="M603.333,732.602c-48.852-24.142-93.729,24.142-142.58,0c0-3.086,0-4.628,0-7.714
						c48.852,24.142,93.728-24.142,142.58,0C603.333,727.973,603.333,729.516,603.333,732.602z"/>
					<path fill="#D94C5A" d="M603.333,716.409c-48.852-24.142-93.728,24.142-142.58,0c0-3.231,0-4.847,0-8.079
						c48.852,24.142,93.728-24.142,142.58,0C603.333,711.562,603.333,713.177,603.333,716.409z"/>
					<path fill="#D94C5A" d="M603.333,699.444c-48.852-24.142-93.728,24.142-142.58,0c0-3.388,0-5.082,0-8.47
						c48.852,24.142,93.728-24.142,142.58,0C603.333,694.362,603.333,696.056,603.333,699.444z"/>
					<path fill="#D94C5A" d="M603.333,681.652c-48.852-24.142-93.728,24.142-142.58,0c0-3.557,0-5.335,0-8.892
						c47.432,26.709,92.367-24.589,142.58,0C603.333,676.317,603.333,678.096,603.333,681.652z"/>
					<path fill="#034C75" d="M519.605,720.231c-22.065,5.632-38.249,6.396-58.852-3.822c0-14.55,0-29.099,0-43.649
						c20.604,10.218,36.787,9.454,58.852,3.822C519.605,691.132,519.605,705.681,519.605,720.231z"/>
					<g>
						<g>
							<path fill="#FFFFFF" d="M470.713,684.003c0.191,0.66,0.286,0.989,0.477,1.647c0.616,0.232,0.924,0.342,1.541,0.552
								c-0.499,0.192-0.748,0.284-1.247,0.462c0.191,0.657,0.286,0.984,0.477,1.639c-0.499-0.541-0.748-0.815-1.247-1.37
								c-0.498,0.17-0.748,0.251-1.246,0.406c0.19-0.507,0.285-0.762,0.475-1.271c-0.498-0.563-0.747-0.849-1.246-1.427
								c0.616,0.267,0.924,0.395,1.541,0.64C470.428,684.771,470.523,684.516,470.713,684.003z"/>
							<path fill="#FFFFFF" d="M480.585,686.763c0.191,0.62,0.286,0.93,0.477,1.549c0.616,0.104,0.924,0.152,1.54,0.238
								c-0.499,0.292-0.748,0.435-1.246,0.715c0.19,0.617,0.286,0.926,0.476,1.542c-0.499-0.44-0.748-0.662-1.247-1.113
								c-0.498,0.273-0.747,0.407-1.246,0.669c0.19-0.548,0.285-0.822,0.475-1.372c-0.499-0.458-0.748-0.691-1.246-1.161
								c0.616,0.134,0.925,0.197,1.541,0.313C480.3,687.591,480.395,687.315,480.585,686.763z"/>
							<path fill="#FFFFFF" d="M490.458,687.646c0.19,0.588,0.286,0.881,0.476,1.467c0.616,0,0.924-0.004,1.54-0.019
								c-0.498,0.374-0.747,0.559-1.246,0.923c0.19,0.585,0.285,0.878,0.475,1.462c-0.498-0.356-0.747-0.536-1.246-0.902
								c-0.499,0.359-0.748,0.536-1.247,0.885c0.191-0.581,0.286-0.872,0.477-1.455c-0.499-0.371-0.748-0.559-1.247-0.941
								c0.616,0.024,0.925,0.032,1.541,0.041C490.172,688.523,490.267,688.231,490.458,687.646z"/>
							<path fill="#FFFFFF" d="M500.329,687.013c0.19,0.562,0.286,0.842,0.476,1.403c0.616-0.083,0.925-0.127,1.541-0.221
								c-0.499,0.438-0.749,0.655-1.248,1.086c0.191,0.56,0.286,0.84,0.477,1.399c-0.498-0.291-0.748-0.438-1.246-0.736
								c-0.498,0.427-0.748,0.638-1.246,1.057c0.19-0.608,0.285-0.912,0.475-1.521c-0.498-0.302-0.747-0.456-1.246-0.766
								c0.616-0.064,0.925-0.099,1.541-0.175C500.044,687.929,500.139,687.624,500.329,687.013z"/>
							<path fill="#FFFFFF" d="M510.201,685.224c0.191,0.543,0.286,0.814,0.477,1.356c0.616-0.143,0.924-0.216,1.54-0.366
								c-0.499,0.483-0.748,0.724-1.247,1.203c0.191,0.542,0.286,0.812,0.477,1.353c-0.499-0.244-0.748-0.367-1.247-0.616
								c-0.498,0.476-0.747,0.712-1.245,1.183c0.19-0.628,0.285-0.942,0.475-1.57c-0.498-0.252-0.747-0.379-1.246-0.636
								c0.616-0.13,0.924-0.197,1.54-0.334C509.915,686.168,510.011,685.853,510.201,685.224z"/>
							<path fill="#FFFFFF" d="M465.664,677.406c0.19,0.682,0.286,1.023,0.476,1.704c0.616,0.305,0.924,0.452,1.541,0.734
								c-0.499,0.134-0.748,0.197-1.246,0.316c0.19,0.679,0.286,1.019,0.476,1.696c-0.498-0.6-0.748-0.904-1.246-1.519
								c-0.499,0.109-0.748,0.16-1.246,0.254c0.19-0.484,0.285-0.726,0.476-1.212c-0.498-0.625-0.748-0.941-1.246-1.581
								c0.616,0.344,0.924,0.51,1.541,0.83C465.378,678.139,465.473,677.895,465.664,677.406z"/>
							<path fill="#FFFFFF" d="M475.488,681.251c0.19,0.64,0.286,0.959,0.477,1.596c0.616,0.167,0.925,0.246,1.541,0.394
								c-0.499,0.243-0.748,0.361-1.247,0.591c0.191,0.637,0.286,0.955,0.477,1.59c-0.499-0.49-0.748-0.738-1.247-1.24
								c-0.498,0.222-0.747,0.33-1.246,0.539c0.19-0.528,0.285-0.792,0.475-1.322c-0.498-0.511-0.748-0.769-1.246-1.293
								c0.616,0.2,0.925,0.295,1.541,0.475C475.202,682.049,475.298,681.783,475.488,681.251z"/>
							<path fill="#FFFFFF" d="M485.312,683.054c0.191,0.603,0.286,0.905,0.477,1.506c0.616,0.051,0.924,0.073,1.54,0.108
								c-0.498,0.334-0.747,0.498-1.246,0.821c0.19,0.601,0.285,0.901,0.476,1.501c-0.499-0.397-0.748-0.598-1.246-1.007
								c-0.498,0.317-0.747,0.472-1.246,0.778c0.19-0.565,0.285-0.847,0.475-1.414c-0.498-0.415-0.747-0.625-1.246-1.05
								c0.616,0.079,0.924,0.114,1.54,0.175C485.027,683.906,485.122,683.622,485.312,683.054z"/>
							<path fill="#FFFFFF" d="M495.137,683.169c0.19,0.574,0.286,0.861,0.476,1.434c0.616-0.042,0.924-0.067,1.54-0.122
								c-0.498,0.407-0.747,0.608-1.246,1.006c0.19,0.573,0.286,0.858,0.476,1.43c-0.499-0.323-0.748-0.486-1.247-0.818
								c-0.499,0.393-0.748,0.588-1.246,0.972c0.19-0.595,0.286-0.892,0.476-1.489c-0.499-0.337-0.748-0.507-1.246-0.852
								c0.616-0.021,0.924-0.034,1.54-0.069C494.851,684.065,494.947,683.767,495.137,683.169z"/>
							<path fill="#FFFFFF" d="M504.962,681.952c0.19,0.552,0.285,0.827,0.475,1.378c0.616-0.114,0.925-0.173,1.541-0.296
								c-0.498,0.461-0.747,0.691-1.245,1.146c0.19,0.551,0.285,0.826,0.475,1.376c-0.498-0.267-0.747-0.401-1.246-0.674
								c-0.499,0.452-0.748,0.676-1.247,1.122c0.191-0.618,0.286-0.927,0.477-1.547c-0.499-0.276-0.748-0.416-1.247-0.699
								c0.616-0.098,0.924-0.149,1.541-0.257C504.676,682.882,504.771,682.572,504.962,681.952z"/>
							<path fill="#FFFFFF" d="M514.786,679.756c0.19,0.536,0.286,0.804,0.476,1.34c0.616-0.163,0.924-0.246,1.541-0.414
								c-0.499,0.499-0.748,0.747-1.247,1.242c0.19,0.536,0.286,0.803,0.476,1.338c-0.499-0.228-0.748-0.343-1.246-0.575
								c-0.499,0.493-0.748,0.738-1.246,1.226c0.19-0.634,0.286-0.952,0.476-1.587c-0.498-0.234-0.748-0.353-1.246-0.591
								c0.616-0.153,0.925-0.231,1.541-0.39C514.5,680.709,514.595,680.392,514.786,679.756z"/>
						</g>
						<g>
							<path fill="#FFFFFF" d="M470.713,692.261c0.191,0.659,0.286,0.989,0.477,1.646c0.616,0.232,0.924,0.342,1.541,0.552
								c-0.499,0.192-0.748,0.285-1.247,0.464c0.191,0.656,0.286,0.984,0.477,1.638c-0.499-0.541-0.748-0.815-1.247-1.369
								c-0.498,0.169-0.748,0.25-1.246,0.405c0.19-0.507,0.285-0.761,0.475-1.269c-0.498-0.564-0.747-0.85-1.246-1.428
								c0.616,0.267,0.924,0.395,1.541,0.64C470.428,693.029,470.523,692.773,470.713,692.261z"/>
							<path fill="#FFFFFF" d="M480.585,695.021c0.191,0.62,0.286,0.929,0.477,1.547c0.616,0.104,0.924,0.152,1.54,0.238
								c-0.499,0.293-0.748,0.436-1.246,0.717c0.19,0.617,0.286,0.925,0.476,1.54c-0.499-0.439-0.748-0.662-1.247-1.113
								c-0.498,0.273-0.747,0.407-1.246,0.668c0.19-0.547,0.285-0.821,0.475-1.37c-0.499-0.459-0.748-0.691-1.246-1.163
								c0.616,0.134,0.925,0.197,1.541,0.312C480.3,695.848,480.395,695.573,480.585,695.021z"/>
							<path fill="#FFFFFF" d="M490.458,695.904c0.19,0.587,0.286,0.88,0.476,1.466c0.616,0,0.924-0.004,1.54-0.019
								c-0.498,0.375-0.747,0.559-1.246,0.925c0.19,0.585,0.285,0.877,0.475,1.46c-0.498-0.356-0.747-0.536-1.246-0.901
								c-0.499,0.359-0.748,0.536-1.247,0.885c0.191-0.581,0.286-0.871,0.477-1.454c-0.499-0.372-0.748-0.56-1.247-0.942
								c0.616,0.024,0.925,0.032,1.541,0.041C490.172,696.781,490.267,696.489,490.458,695.904z"/>
							<path fill="#FFFFFF" d="M500.329,695.271c0.19,0.561,0.286,0.842,0.476,1.402c0.616-0.083,0.925-0.127,1.541-0.221
								c-0.499,0.438-0.749,0.656-1.248,1.087c0.191,0.559,0.286,0.839,0.477,1.397c-0.499-0.29-0.748-0.438-1.247-0.735
								c-0.498,0.426-0.748,0.637-1.246,1.056c0.19-0.607,0.285-0.911,0.475-1.52c-0.498-0.303-0.747-0.456-1.246-0.767
								c0.617-0.064,0.925-0.099,1.541-0.175C500.044,696.186,500.139,695.882,500.329,695.271z"/>
							<path fill="#FFFFFF" d="M510.201,693.482c0.191,0.542,0.286,0.813,0.477,1.355c0.616-0.143,0.924-0.216,1.54-0.366
								c-0.499,0.484-0.748,0.725-1.247,1.204c0.191,0.541,0.286,0.812,0.477,1.352c-0.499-0.244-0.748-0.366-1.247-0.615
								c-0.498,0.475-0.747,0.712-1.245,1.182c0.19-0.627,0.285-0.941,0.475-1.569c-0.498-0.252-0.747-0.38-1.246-0.637
								c0.616-0.13,0.924-0.197,1.54-0.335C509.915,694.425,510.011,694.111,510.201,693.482z"/>
							<path fill="#FFFFFF" d="M465.664,685.663c0.19,0.683,0.286,1.024,0.476,1.704c0.616,0.305,0.924,0.452,1.541,0.734
								c-0.499,0.134-0.748,0.197-1.247,0.316c0.19,0.679,0.286,1.018,0.476,1.695c-0.498-0.6-0.748-0.903-1.246-1.519
								c-0.499,0.109-0.748,0.16-1.246,0.254c0.19-0.483,0.285-0.726,0.476-1.211c-0.498-0.625-0.748-0.941-1.246-1.581
								c0.616,0.344,0.924,0.51,1.541,0.83C465.378,686.397,465.473,686.153,465.664,685.663z"/>
							<path fill="#FFFFFF" d="M475.488,689.508c0.19,0.64,0.286,0.959,0.477,1.597c0.616,0.167,0.925,0.246,1.541,0.394
								c-0.499,0.243-0.748,0.361-1.247,0.591c0.191,0.637,0.286,0.954,0.477,1.589c-0.499-0.49-0.748-0.738-1.247-1.24
								c-0.498,0.222-0.747,0.33-1.246,0.538c0.19-0.527,0.285-0.792,0.475-1.321c-0.498-0.511-0.748-0.769-1.246-1.293
								c0.616,0.2,0.925,0.295,1.541,0.475C475.202,690.307,475.298,690.041,475.488,689.508z"/>
							<path fill="#FFFFFF" d="M485.312,691.311c0.191,0.604,0.286,0.905,0.477,1.507c0.616,0.051,0.924,0.073,1.54,0.108
								c-0.498,0.334-0.747,0.498-1.246,0.821c0.19,0.601,0.285,0.901,0.476,1.5c-0.499-0.397-0.748-0.598-1.246-1.006
								c-0.498,0.316-0.747,0.472-1.246,0.778c0.19-0.564,0.285-0.847,0.475-1.413c-0.498-0.414-0.747-0.625-1.245-1.05
								c0.616,0.079,0.924,0.114,1.54,0.175C485.027,692.164,485.122,691.88,485.312,691.311z"/>
							<path fill="#FFFFFF" d="M495.137,691.427c0.19,0.574,0.286,0.861,0.476,1.434c0.616-0.042,0.924-0.067,1.54-0.122
								c-0.498,0.407-0.747,0.608-1.246,1.006c0.19,0.572,0.286,0.858,0.476,1.429c-0.499-0.323-0.748-0.486-1.247-0.817
								c-0.499,0.393-0.748,0.588-1.246,0.972c0.19-0.594,0.286-0.892,0.476-1.488c-0.499-0.337-0.748-0.507-1.247-0.852
								c0.616-0.021,0.924-0.034,1.54-0.069C494.851,692.323,494.947,692.025,495.137,691.427z"/>
							<path fill="#FFFFFF" d="M504.962,690.209c0.19,0.552,0.285,0.828,0.475,1.379c0.616-0.114,0.925-0.173,1.541-0.296
								c-0.498,0.462-0.747,0.691-1.245,1.146c0.19,0.55,0.285,0.825,0.475,1.375c-0.498-0.266-0.747-0.401-1.246-0.674
								c-0.499,0.452-0.748,0.676-1.247,1.122c0.191-0.618,0.286-0.927,0.477-1.546c-0.499-0.276-0.748-0.416-1.247-0.699
								c0.616-0.098,0.924-0.149,1.541-0.257C504.676,691.139,504.771,690.829,504.962,690.209z"/>
							<path fill="#FFFFFF" d="M514.786,688.013c0.19,0.536,0.286,0.804,0.476,1.34c0.616-0.163,0.924-0.246,1.541-0.414
								c-0.499,0.499-0.748,0.747-1.247,1.242c0.19,0.535,0.286,0.803,0.476,1.338c-0.499-0.228-0.748-0.343-1.246-0.575
								c-0.499,0.492-0.748,0.738-1.246,1.226c0.19-0.634,0.286-0.951,0.476-1.586c-0.499-0.235-0.748-0.353-1.246-0.592
								c0.616-0.153,0.925-0.231,1.541-0.39C514.5,688.967,514.595,688.649,514.786,688.013z"/>
						</g>
						<g>
							<path fill="#FFFFFF" d="M470.713,701.097c0.191,0.659,0.286,0.989,0.477,1.646c0.616,0.232,0.924,0.342,1.541,0.552
								c-0.499,0.192-0.748,0.285-1.247,0.464c0.191,0.656,0.286,0.984,0.477,1.638c-0.499-0.541-0.748-0.815-1.247-1.37
								c-0.498,0.169-0.747,0.25-1.246,0.406c0.19-0.507,0.285-0.761,0.475-1.27c-0.498-0.564-0.747-0.85-1.246-1.428
								c0.616,0.267,0.924,0.395,1.541,0.64C470.428,701.865,470.523,701.609,470.713,701.097z"/>
							<path fill="#FFFFFF" d="M480.585,703.857c0.191,0.62,0.286,0.929,0.477,1.547c0.616,0.104,0.924,0.152,1.54,0.238
								c-0.499,0.292-0.748,0.436-1.246,0.717c0.19,0.617,0.286,0.925,0.476,1.541c-0.499-0.439-0.748-0.662-1.247-1.113
								c-0.498,0.273-0.747,0.407-1.246,0.668c0.19-0.547,0.285-0.822,0.475-1.371c-0.499-0.459-0.748-0.691-1.246-1.163
								c0.616,0.134,0.925,0.197,1.541,0.312C480.3,704.684,480.395,704.409,480.585,703.857z"/>
							<path fill="#FFFFFF" d="M490.458,704.74c0.19,0.587,0.286,0.88,0.476,1.466c0.616,0,0.924-0.004,1.54-0.019
								c-0.498,0.375-0.747,0.56-1.246,0.925c0.19,0.585,0.285,0.877,0.475,1.461c-0.498-0.356-0.747-0.536-1.246-0.902
								c-0.499,0.359-0.748,0.536-1.247,0.885c0.191-0.581,0.286-0.872,0.477-1.454c-0.499-0.372-0.748-0.56-1.247-0.942
								c0.616,0.024,0.925,0.032,1.541,0.041C490.172,705.617,490.267,705.325,490.458,704.74z"/>
							<path fill="#FFFFFF" d="M500.329,704.107c0.19,0.561,0.286,0.842,0.476,1.402c0.616-0.083,0.925-0.127,1.541-0.221
								c-0.499,0.438-0.749,0.656-1.248,1.087c0.191,0.56,0.286,0.839,0.477,1.398c-0.499-0.291-0.748-0.438-1.247-0.736
								c-0.498,0.426-0.748,0.638-1.246,1.056c0.19-0.608,0.285-0.912,0.475-1.52c-0.498-0.303-0.747-0.456-1.246-0.767
								c0.616-0.064,0.925-0.099,1.541-0.175C500.044,705.022,500.139,704.718,500.329,704.107z"/>
							<path fill="#FFFFFF" d="M510.201,702.318c0.191,0.542,0.286,0.813,0.477,1.355c0.616-0.143,0.924-0.216,1.54-0.366
								c-0.499,0.484-0.748,0.725-1.247,1.204c0.191,0.541,0.286,0.812,0.477,1.353c-0.499-0.244-0.748-0.367-1.247-0.615
								c-0.498,0.475-0.747,0.712-1.245,1.182c0.19-0.627,0.285-0.941,0.475-1.569c-0.498-0.252-0.747-0.38-1.246-0.637
								c0.616-0.13,0.924-0.197,1.54-0.334C509.915,703.261,510.011,702.947,510.201,702.318z"/>
							<path fill="#FFFFFF" d="M465.664,694.499c0.19,0.683,0.286,1.024,0.476,1.705c0.616,0.305,0.924,0.452,1.541,0.735
								c-0.499,0.134-0.748,0.197-1.247,0.315c0.19,0.679,0.286,1.018,0.476,1.696c-0.499-0.6-0.748-0.904-1.246-1.519
								c-0.499,0.109-0.748,0.16-1.246,0.254c0.19-0.484,0.285-0.726,0.476-1.212c-0.498-0.625-0.748-0.941-1.246-1.581
								c0.616,0.344,0.924,0.51,1.541,0.83C465.378,695.233,465.473,694.989,465.664,694.499z"/>
							<path fill="#FFFFFF" d="M475.488,698.344c0.19,0.64,0.286,0.959,0.477,1.598c0.616,0.167,0.925,0.246,1.541,0.394
								c-0.499,0.242-0.748,0.361-1.247,0.59c0.191,0.637,0.286,0.955,0.477,1.59c-0.499-0.49-0.748-0.738-1.247-1.241
								c-0.498,0.222-0.747,0.33-1.246,0.539c0.19-0.528,0.285-0.792,0.475-1.322c-0.498-0.51-0.748-0.769-1.246-1.293
								c0.616,0.2,0.925,0.295,1.541,0.475C475.202,699.143,475.298,698.877,475.488,698.344z"/>
							<path fill="#FFFFFF" d="M485.312,700.147c0.191,0.604,0.286,0.905,0.477,1.507c0.616,0.051,0.924,0.073,1.54,0.108
								c-0.498,0.333-0.748,0.498-1.246,0.821c0.19,0.601,0.285,0.901,0.476,1.501c-0.499-0.397-0.748-0.599-1.246-1.007
								c-0.498,0.317-0.747,0.472-1.246,0.778c0.19-0.565,0.285-0.847,0.475-1.414c-0.498-0.414-0.747-0.624-1.245-1.05
								c0.616,0.079,0.924,0.114,1.54,0.175C485.027,701,485.122,700.716,485.312,700.147z"/>
							<path fill="#FFFFFF" d="M495.137,700.263c0.19,0.574,0.286,0.861,0.476,1.435c0.616-0.042,0.924-0.067,1.54-0.122
								c-0.498,0.406-0.747,0.608-1.246,1.006c0.19,0.573,0.286,0.858,0.476,1.43c-0.499-0.323-0.748-0.486-1.246-0.818
								c-0.499,0.393-0.748,0.588-1.246,0.972c0.19-0.595,0.286-0.893,0.476-1.489c-0.499-0.336-0.748-0.507-1.247-0.852
								c0.616-0.021,0.924-0.034,1.54-0.069C494.851,701.159,494.947,700.861,495.137,700.263z"/>
							<path fill="#FFFFFF" d="M504.962,699.045c0.19,0.552,0.285,0.828,0.475,1.379c0.616-0.114,0.925-0.173,1.541-0.296
								c-0.498,0.461-0.747,0.69-1.245,1.146c0.19,0.551,0.285,0.826,0.475,1.376c-0.498-0.267-0.747-0.401-1.246-0.674
								c-0.499,0.452-0.748,0.676-1.247,1.122c0.191-0.618,0.286-0.927,0.477-1.546c-0.499-0.276-0.748-0.416-1.247-0.699
								c0.616-0.098,0.924-0.149,1.541-0.257C504.676,699.976,504.771,699.666,504.962,699.045z"/>
							<path fill="#FFFFFF" d="M514.786,696.849c0.19,0.537,0.286,0.805,0.476,1.341c0.616-0.163,0.924-0.246,1.541-0.414
								c-0.499,0.498-0.748,0.747-1.247,1.241c0.19,0.536,0.286,0.803,0.476,1.338c-0.499-0.228-0.748-0.343-1.246-0.575
								c-0.499,0.493-0.748,0.738-1.246,1.226c0.19-0.634,0.286-0.952,0.476-1.587c-0.498-0.234-0.748-0.352-1.246-0.591
								c0.616-0.153,0.925-0.231,1.541-0.39C514.5,697.803,514.595,697.485,514.786,696.849z"/>
						</g>
						<g>
							<path fill="#FFFFFF" d="M470.713,709.354c0.191,0.66,0.286,0.99,0.477,1.647c0.616,0.232,0.924,0.342,1.541,0.552
								c-0.499,0.192-0.748,0.284-1.247,0.463c0.191,0.656,0.286,0.984,0.477,1.638c-0.499-0.541-0.748-0.814-1.247-1.369
								c-0.498,0.169-0.747,0.25-1.246,0.405c0.19-0.507,0.285-0.761,0.475-1.27c-0.498-0.564-0.747-0.849-1.246-1.427
								c0.616,0.267,0.924,0.395,1.541,0.64C470.428,710.123,470.523,709.867,470.713,709.354z"/>
							<path fill="#FFFFFF" d="M480.585,712.114c0.191,0.62,0.286,0.93,0.477,1.549c0.616,0.104,0.924,0.152,1.54,0.238
								c-0.499,0.292-0.748,0.435-1.246,0.716c0.19,0.617,0.286,0.925,0.476,1.54c-0.499-0.439-0.748-0.661-1.247-1.112
								c-0.498,0.273-0.747,0.406-1.246,0.667c0.19-0.547,0.285-0.821,0.475-1.37c-0.499-0.458-0.748-0.691-1.246-1.162
								c0.616,0.134,0.925,0.197,1.541,0.312C480.3,712.942,480.395,712.666,480.585,712.114z"/>
							<path fill="#FFFFFF" d="M490.458,712.997c0.19,0.588,0.286,0.881,0.476,1.467c0.616,0,0.924-0.004,1.54-0.019
								c-0.498,0.374-0.748,0.559-1.246,0.924c0.19,0.585,0.285,0.877,0.475,1.46c-0.498-0.356-0.747-0.536-1.246-0.901
								c-0.499,0.359-0.748,0.535-1.247,0.884c0.191-0.581,0.286-0.872,0.477-1.454c-0.499-0.371-0.748-0.56-1.247-0.941
								c0.616,0.024,0.925,0.032,1.541,0.041C490.172,713.874,490.267,713.582,490.458,712.997z"/>
							<path fill="#FFFFFF" d="M500.329,712.364c0.19,0.562,0.286,0.842,0.476,1.403c0.616-0.083,0.925-0.127,1.541-0.221
								c-0.499,0.438-0.749,0.655-1.248,1.086c0.191,0.559,0.286,0.839,0.477,1.397c-0.499-0.29-0.748-0.437-1.247-0.735
								c-0.498,0.426-0.748,0.637-1.246,1.056c0.19-0.607,0.285-0.911,0.475-1.52c-0.498-0.303-0.747-0.456-1.246-0.766
								c0.616-0.064,0.925-0.099,1.541-0.175C500.044,713.28,500.139,712.975,500.329,712.364z"/>
							<path fill="#FFFFFF" d="M510.201,710.575c0.191,0.543,0.286,0.814,0.477,1.356c0.616-0.143,0.924-0.216,1.54-0.366
								c-0.499,0.484-0.748,0.724-1.247,1.203c0.191,0.541,0.286,0.812,0.477,1.352c-0.499-0.243-0.748-0.366-1.247-0.614
								c-0.498,0.475-0.747,0.712-1.245,1.182c0.19-0.627,0.285-0.941,0.475-1.568c-0.498-0.252-0.747-0.379-1.246-0.637
								c0.616-0.13,0.924-0.197,1.54-0.334C509.915,711.519,510.011,711.204,510.201,710.575z"/>
							<path fill="#FFFFFF" d="M465.664,702.756c0.19,0.683,0.286,1.024,0.476,1.705c0.616,0.305,0.924,0.452,1.541,0.734
								c-0.499,0.133-0.748,0.196-1.247,0.315c0.19,0.679,0.286,1.018,0.476,1.695c-0.499-0.6-0.748-0.904-1.246-1.52
								c-0.499,0.11-0.748,0.161-1.246,0.255c0.19-0.484,0.285-0.726,0.476-1.212c-0.498-0.624-0.748-0.94-1.246-1.58
								c0.616,0.344,0.924,0.51,1.541,0.83C465.378,703.491,465.473,703.246,465.664,702.756z"/>
							<path fill="#FFFFFF" d="M475.488,706.602c0.19,0.64,0.286,0.96,0.477,1.598c0.616,0.167,0.925,0.246,1.541,0.394
								c-0.499,0.242-0.748,0.36-1.247,0.59c0.191,0.637,0.286,0.955,0.477,1.59c-0.499-0.49-0.748-0.738-1.247-1.241
								c-0.498,0.222-0.747,0.33-1.246,0.539c0.19-0.528,0.285-0.792,0.475-1.322c-0.498-0.51-0.748-0.769-1.246-1.292
								c0.616,0.2,0.925,0.295,1.541,0.475C475.202,707.401,475.298,707.135,475.488,706.602z"/>
							<path fill="#FFFFFF" d="M485.312,708.405c0.191,0.604,0.286,0.906,0.477,1.508c0.616,0.051,0.924,0.073,1.54,0.108
								c-0.498,0.333-0.748,0.497-1.246,0.82c0.19,0.601,0.285,0.901,0.476,1.501c-0.499-0.397-0.748-0.599-1.246-1.007
								c-0.498,0.317-0.747,0.473-1.246,0.779c0.19-0.565,0.285-0.847,0.475-1.414c-0.498-0.414-0.747-0.624-1.245-1.049
								c0.616,0.079,0.924,0.114,1.54,0.175C485.027,709.258,485.122,708.974,485.312,708.405z"/>
							<path fill="#FFFFFF" d="M495.137,708.52c0.19,0.575,0.286,0.862,0.476,1.435c0.616-0.042,0.924-0.067,1.54-0.122
								c-0.498,0.406-0.747,0.607-1.246,1.005c0.19,0.572,0.286,0.858,0.476,1.43c-0.499-0.323-0.748-0.487-1.246-0.818
								c-0.499,0.393-0.748,0.588-1.246,0.973c0.19-0.595,0.286-0.893,0.476-1.489c-0.499-0.336-0.748-0.506-1.247-0.852
								c0.616-0.021,0.924-0.035,1.54-0.069C494.851,709.417,494.947,709.118,495.137,708.52z"/>
							<path fill="#FFFFFF" d="M504.962,707.302c0.19,0.552,0.285,0.828,0.475,1.38c0.616-0.114,0.925-0.173,1.541-0.296
								c-0.498,0.461-0.747,0.69-1.245,1.145c0.19,0.551,0.285,0.826,0.475,1.376c-0.498-0.267-0.747-0.402-1.246-0.675
								c-0.499,0.452-0.748,0.677-1.247,1.122c0.191-0.618,0.286-0.927,0.477-1.546c-0.499-0.276-0.748-0.416-1.247-0.698
								c0.616-0.098,0.924-0.149,1.541-0.257C504.676,708.233,504.771,707.923,504.962,707.302z"/>
							<path fill="#FFFFFF" d="M514.786,705.107c0.19,0.537,0.286,0.805,0.476,1.341c0.616-0.163,0.924-0.246,1.541-0.414
								c-0.499,0.498-0.748,0.746-1.247,1.241c0.19,0.536,0.286,0.803,0.476,1.338c-0.499-0.228-0.748-0.343-1.246-0.576
								c-0.499,0.493-0.748,0.738-1.247,1.227c0.19-0.635,0.286-0.952,0.476-1.587c-0.498-0.234-0.748-0.352-1.246-0.591
								c0.616-0.153,0.925-0.231,1.541-0.39C514.5,706.061,514.596,705.743,514.786,705.107z"/>
						</g>
						<path fill="#FFFFFF" d="M465.664,711.121c0.19,0.683,0.286,1.024,0.476,1.704c0.616,0.305,0.924,0.452,1.541,0.735
							c-0.499,0.134-0.748,0.197-1.247,0.315c0.19,0.679,0.286,1.018,0.476,1.695c-0.499-0.6-0.748-0.904-1.246-1.519
							c-0.499,0.109-0.748,0.16-1.246,0.254c0.19-0.484,0.285-0.726,0.476-1.212c-0.498-0.625-0.748-0.941-1.246-1.581
							c0.616,0.344,0.924,0.51,1.541,0.83C465.378,711.855,465.473,711.611,465.664,711.121z"/>
						<path fill="#FFFFFF" d="M475.488,714.966c0.19,0.64,0.286,0.959,0.477,1.597c0.616,0.167,0.925,0.246,1.541,0.394
							c-0.499,0.242-0.748,0.36-1.247,0.59c0.191,0.637,0.286,0.955,0.477,1.59c-0.499-0.49-0.748-0.738-1.247-1.241
							c-0.498,0.222-0.747,0.33-1.246,0.539c0.19-0.528,0.285-0.792,0.475-1.322c-0.498-0.51-0.748-0.769-1.246-1.293
							c0.616,0.2,0.925,0.295,1.541,0.475C475.202,715.765,475.298,715.499,475.488,714.966z"/>
						<path fill="#FFFFFF" d="M485.312,716.769c0.191,0.604,0.286,0.905,0.477,1.507c0.616,0.051,0.924,0.073,1.54,0.108
							c-0.498,0.334-0.748,0.498-1.246,0.821c0.19,0.601,0.285,0.901,0.476,1.501c-0.499-0.397-0.748-0.599-1.246-1.007
							c-0.498,0.317-0.747,0.472-1.246,0.778c0.19-0.565,0.285-0.847,0.475-1.414c-0.498-0.414-0.747-0.624-1.245-1.05
							c0.616,0.079,0.924,0.114,1.54,0.175C485.027,717.622,485.122,717.338,485.312,716.769z"/>
						<path fill="#FFFFFF" d="M495.137,716.884c0.19,0.574,0.286,0.861,0.476,1.435c0.616-0.042,0.924-0.067,1.54-0.122
							c-0.498,0.406-0.747,0.608-1.246,1.006c0.19,0.573,0.286,0.858,0.476,1.43c-0.499-0.323-0.748-0.486-1.246-0.818
							c-0.499,0.393-0.748,0.588-1.246,0.972c0.19-0.595,0.286-0.893,0.476-1.489c-0.499-0.336-0.748-0.507-1.247-0.852
							c0.616-0.021,0.924-0.034,1.54-0.069C494.851,717.781,494.947,717.482,495.137,716.884z"/>
						<path fill="#FFFFFF" d="M504.962,715.667c0.19,0.552,0.285,0.828,0.475,1.379c0.616-0.114,0.925-0.173,1.541-0.296
							c-0.498,0.461-0.747,0.69-1.245,1.146c0.19,0.551,0.285,0.826,0.475,1.376c-0.498-0.267-0.747-0.401-1.246-0.674
							c-0.499,0.452-0.748,0.676-1.247,1.122c0.191-0.618,0.286-0.927,0.477-1.547c-0.499-0.276-0.748-0.416-1.247-0.699
							c0.616-0.098,0.924-0.149,1.541-0.257C504.676,716.597,504.771,716.287,504.962,715.667z"/>
						<path fill="#FFFFFF" d="M514.786,713.471c0.19,0.537,0.286,0.805,0.476,1.341c0.616-0.163,0.924-0.246,1.541-0.414
							c-0.499,0.498-0.748,0.747-1.247,1.241c0.19,0.536,0.286,0.803,0.476,1.338c-0.499-0.228-0.748-0.343-1.246-0.575
							c-0.499,0.493-0.748,0.738-1.247,1.226c0.19-0.634,0.286-0.952,0.476-1.587c-0.498-0.234-0.748-0.352-1.246-0.591
							c0.616-0.152,0.925-0.231,1.541-0.39C514.5,714.425,514.596,714.107,514.786,713.471z"/>
					</g>
				</g>
			</g>
		</g>
	</g>
	<g id="it">
		<g id="it-line">
			<polygon fill="#B1C482" points="338.985,546.958 310.858,530.719 338.985,514.479 			"/>
			<rect x="322.876" y="430.718" fill="#B1C482" width="17" height="200"/>
		</g>
		
			<text id="it-date" transform="matrix(1 0 0 1 378.0717 538.9668)" fill="#B1C482" font-family="'Roboto-Medium'" font-size="28.2251">2012 - 2013</text>
		<g id="it-badge">
			<circle id="it-circle" fill="#B1C482" cx="130.957" cy="530.718" r="130.5"/>
			<g id="it-title">
				<text transform="matrix(1 0 0 1 107.0562 449.7247)" fill="#FFFFFF" font-family="'Roboto-Bold'" font-size="35">HTL Villach</text>
			</g>
			<g id="it-details">
				<rect x="35.85" y="576.618" fill="none" width="187" height="68"/>
				<text transform="matrix(1 0 0 1 46.0615 589.8476)" fill="#EBF4CE" font-family="'Roboto-Bold'" font-size="18">Media </text>
				<text transform="matrix(1 0 0 1 100.4135 589.8476)" fill="#EBF4CE" font-family="'Roboto-Light'" font-size="18">Engineering</text>
				<text transform="matrix(1 0 0 1 64.9077 611.4493)" fill="#EBF4CE" font-family="'Roboto-Bold'" font-size="18">Network </text>
				<text transform="matrix(1 0 0 1 137.2947 611.4493)" fill="#EBF4CE" font-family="'Roboto-Light'" font-size="18">Engineering</text>
				<g id="it-icon">
					<path fill="#F5FFFE" d="M172.27,506.212c-1.72,0-3.421,0.165-5.093,0.491c-0.761-20.507-17.684-36.958-38.376-36.958
						c-19.029,0-35.128,14.08-37.952,32.588c-15.343,0.375-27.709,12.972-27.709,28.401c0,15.666,12.745,28.41,28.41,28.41h23.771
						c1.796,0,3.254-1.456,3.254-3.254c0-1.797-1.458-3.254-3.254-3.254H91.55c-12.076,0-21.902-9.824-21.902-21.902
						c0-12.076,9.826-21.902,21.902-21.902c0.593,0,1.22,0.03,1.917,0.089l3.298,0.285l0.229-3.303
						c1.155-16.627,15.127-29.651,31.806-29.651c17.586,0,31.895,14.308,31.895,31.895c0,0.807-0.039,1.672-0.119,2.642
						l-0.426,5.193l4.854-1.897c2.324-0.906,4.769-1.366,7.267-1.366c11.023,0,19.993,8.969,19.993,19.992
						c0,11.025-8.97,19.995-19.993,19.995c-0.29,0-8.942-0.02-17.559-0.036c-8.553-0.017-17.072-0.034-17.355-0.034
						c-2.025,0-3.083-0.977-3.146-2.898V514.61l3.532,4.195c1.157,1.375,3.21,1.551,4.585,0.394c1.375-1.157,1.551-3.21,0.392-4.584
						l-7.826-9.299c-0.985-1.169-2.403-1.841-3.886-1.841c-1.485,0-2.9,0.671-3.888,1.841l-7.826,9.299
						c-1.157,1.375-0.981,3.427,0.394,4.584c0.61,0.513,1.354,0.765,2.095,0.765c0.926,0,1.847-0.393,2.489-1.159l3.428-4.072
						v35.036c0,3.767,2.572,9.375,9.657,9.375c0.284,0,8.794,0.017,17.343,0.034c8.622,0.017,17.279,0.034,17.569,0.034
						c14.614,0,26.503-11.887,26.503-26.501C198.774,518.099,186.884,506.212,172.27,506.212L172.27,506.212z"/>
				</g>
			</g>
		</g>
	</g>
	<g id="gym">
		<g id="gym-line">
			<rect x="322.876" y="230.718" fill="#EAB83D" width="17" height="200"/>
			<polygon fill="#EAB83D" points="322.876,346.957 351.003,330.718 322.876,314.478 			"/>
		</g>
		
			<text id="gym-date" transform="matrix(1 0 0 1 132.9569 338.9662)" fill="#EAB83D" font-family="'Roboto-Medium'" font-size="28.2251">2008 - 2012</text>
		<g id="gym-badge">
			<circle id="gym-circle" fill="#EAB83D" cx="532.043" cy="330.718" r="130.5"/>
			<g id="gym-title">
				<text transform="matrix(1 0 0 1 464.5066 249.7243)" fill="#FFFFFF" font-family="'Roboto-Bold'" font-size="35">Gymnasium</text>
			</g>
			<g id="gym-details">
				<g id="gym-icon">
					<g>
						<g>
							<path fill="#CC3300" d="M566.354,289.199H499c-0.097,0-0.192,0.01-0.288,0.015v96.033c0.096,0.005,0.191,0.014,0.288,0.014
								h67.354c3.166,0,5.757-2.573,5.757-5.718v-84.626C572.111,291.772,569.521,289.199,566.354,289.199z"/>
							<path opacity="0.65" fill="#CC5333" enable-background="new    " d="M566.354,289.199H499c-0.097,0-0.192,0.01-0.288,0.015
								v96.033c0.096,0.005,0.191,0.014,0.288,0.014h67.354c3.166,0,5.757-2.573,5.757-5.718v-84.626
								C572.111,291.772,569.521,289.199,566.354,289.199z"/>
							<g>
								<path fill="#FFFFFF" d="M570.392,367.653v-0.14h-71.307v0.012c-4.293,0.131-7.735,3.706-7.735,8.107
									c0,4.484,3.493,7.935,7.898,7.935c0.549,0,1.139,0.039,1.68,0.021h69.313c-3.638-0.755-5.086-4.029-5.086-7.955
									C565.155,371.652,566.68,368.348,570.392,367.653z"/>
								<g>
									<g>
										<g>
											<g>
												<g>
													<defs>
														<path id="SVGID_1_" d="M570.392,367.653v-0.14h-71.307v0.012c-4.293,0.131-7.735,3.706-7.735,8.107
															c0,4.484,3.493,7.935,7.898,7.935c0.549,0,1.06,0.025,1.68,0.021h69.313c-3.638-0.755-5.086-4.029-5.086-7.955
															C565.155,371.652,566.68,368.348,570.392,367.653z"/>
													</defs>
													<clipPath id="SVGID_2_">
														<use xlink:href="#SVGID_1_"  overflow="visible"/>
													</clipPath>
													<g clip-path="url(#SVGID_2_)">
														<rect x="491.027" y="369.528" fill="#CCD4D3" width="80.036" height="0.779"/>
														<rect x="491.027" y="373.465" fill="#CCD4D3" width="80.036" height="0.779"/>
														<rect x="491.027" y="377.402" fill="#CCD4D3" width="80.036" height="0.779"/>
														<rect x="491.027" y="379.37" fill="#CCD4D3" width="80.036" height="0.779"/>
														<rect x="491.027" y="381.339" fill="#CCD4D3" width="80.036" height="0.779"/>
														<rect x="491.027" y="375.434" fill="#CCD4D3" width="80.036" height="0.779"/>
														<rect x="491.027" y="371.497" fill="#CCD4D3" width="80.036" height="0.779"/>
													</g>
												</g>
											</g>
										</g>
									</g>
								</g>
							</g>
							<g>
								<path fill="#CC3300" d="M566.572,273.124h-67.354c-0.097,0-0.192,0.01-0.288,0.014v96.033
									c0.096,0.005,0.191,0.014,0.288,0.014h67.354c3.166,0,5.757-2.573,5.757-5.718v-84.625
									C572.328,275.697,569.738,273.124,566.572,273.124z"/>
							</g>
							<path fill="#3E2723" d="M498.735,383.573c-0.065,0.002-0.206-0.039-0.271-0.041c-2.715-0.081-7.005-3.392-7.005-7.426
								s3.026-6.992,7.06-6.992c0.066,0,0.37,0.037,0.435,0.041l-0.24-79.942c0.072-0.004,0.145-0.008,0.217-0.011v-16.057
								c-0.137-0.006-0.273-0.021-0.412-0.021c-4.066,0-7.883,2.665-8.503,6.494c-0.138,0.854-0.15,2.782-0.137,3.459
								c0,0-0.184,92.955-0.184,93.342s0.033,0.764,0.081,1.138v0.247h0.038c0.666,4.214,4.304,7.44,8.705,7.44
								c0.066,0,0.129-0.008,0.195-0.01L498.735,383.573z"/>
						</g>
						<polygon fill="#FF0000" points="505.795,388.311 502.482,385.704 499.169,388.311 499.169,381.903 499.169,375.495 
							502.482,375.495 505.795,375.495 505.795,381.903 						"/>
						<path opacity="0.35" fill="#CC5333" enable-background="new    " d="M534.577,273.124h-35.36c-0.097,0-0.192,0.01-0.288,0.015
							v96.033c0.096,0.005,0.191,0.015,0.288,0.015h35.36V273.124z"/>
					</g>
					<path fill="#3E2723" d="M555.036,295.769h-42.185c-1.641,0-2.984-1.343-2.984-2.984v-0.571c0-1.641,1.343-2.984,2.984-2.984
						h42.185c1.641,0,2.984,1.343,2.984,2.984v0.571C558.02,294.426,556.677,295.769,555.036,295.769z"/>
					<path fill="#3E2723" d="M544.763,307.956h-21.046c-1.343,0-2.442-1.099-2.442-2.442v-0.467c0-1.343,1.099-2.442,2.442-2.442
						h21.046c1.343,0,2.442,1.099,2.442,2.442v0.467C547.205,306.857,546.106,307.956,544.763,307.956z"/>
				</g>
				<rect x="437.511" y="376.618" fill="none" width="187" height="68"/>
				<text transform="matrix(1 0 0 1 451.2166 389.8472)" fill="#3E2723" font-family="'Roboto-Light'" font-size="18">BG/BRG</text>
				<text transform="matrix(1 0 0 1 517.1436 389.8472)" fill="#3E2723" font-family="'Roboto-Regular'" font-size="18"> </text>
				<text transform="matrix(1 0 0 1 521.6165 389.8472)" fill="#3E2723" font-family="'Roboto-Bold'" font-size="18">Perau</text>
				<text transform="matrix(1 0 0 1 458.2992 411.4489)" fill="#3E2723" font-family="'Roboto-Light'" font-size="18">VILLACH</text>
			</g>
		</g>
	</g>
	<g id="vs">
		<g id="vs-line">
			<rect x="322.876" y="30.718" fill="#D1652F" width="17" height="200"/>
			<polygon fill="#D1652F" points="339.876,146.957 311.749,130.718 339.876,114.478 			"/>
		</g>
		
			<text id="vs-date" transform="matrix(1 0 0 1 379.3765 138.9661)" fill="#D1652F" font-family="'Roboto-Medium'" font-size="28.2251">2004 - 2008</text>
		<g id="vs-badge">
			<circle id="vs-circle" fill="#D1652F" cx="130.957" cy="130.718" r="130.5"/>
			<g id="vs-title">
				<text transform="matrix(1 0 0 1 103.792 49.7236)" fill="#FFFFFF" font-family="'Roboto-Bold'" font-size="35">Volkschule</text>
			</g>
			<g id="vs-details">
				<g id="vs-icon">
					<path fill="#FFD8C5" d="M116.133,171.115c-0.373-0.494-0.563-0.991-0.665-1.442c1.281-0.233,2.297-0.314,2.297-0.314
						l1.509-17.233l7.539-0.04c0,0-1.465,13.726-2.897,19.684C121.773,171.984,117.034,172.306,116.133,171.115z"/>
					<path fill="#FFD8C5" d="M143.284,171.876c-0.6-0.162-1.051-0.43-1.411-0.724c0.866-0.972,1.614-1.664,1.614-1.664
						l-9.427-14.504l5.916-4.674c0,0,7.297,11.709,9.843,17.287C148.262,169.084,144.73,172.262,143.284,171.876z"/>
					<path fill="#FFD8C5" d="M117.718,122.402l-15.281,2.791c0,0,1.937,4.923,0.278,4.229c-1.66-0.695-2.045-2.091-2.045-2.091
						s-2.097,4.541-3.463,3.073c-1.364-1.467,0.93-3.95,0.93-3.95s-3.606,2.317-4.547,0.616c-0.937-1.702,2.167-3.023,2.167-3.023
						s-2.92,0.443-2.991-1.291c-0.069-1.74,2.676-1.086,2.676-1.086s-0.504-1.722,0.21-2.947c0.656-1.133,2.328-0.078,3.654,1.247
						c0.11,0.109,0.219,0.22,0.321,0.333c1.367,1.471,13.417-4.563,13.417-4.563L117.718,122.402z"/>
					<path fill="#A6CDEC" d="M128.225,111.513l-18.777,4.323l3.573,8.054l5.545-1.678l-0.442,20.002l27.066-8.119l-1.261-13.652
						l6.074,3.377l2.342-8.297C152.344,115.522,133.629,110.837,128.225,111.513z"/>
					<path fill="#FFD8C5" d="M127.356,107.209l-0.266,6.319c0,0,1.043,2.813,4.145,2.63c3.1-0.184,4.415-2.256,4.415-2.256
						l-0.51-6.632L127.356,107.209z"/>
					<path fill="#386A93" d="M118.362,125.86l-1.484,36.245l10.431,0.996l3.798-13.714l8.451,14.81l7.477-3.092
						c0,0-0.982-18.211-1.057-20.978c-0.073-2.766-1.232-13.853-1.232-13.853L118.362,125.86z"/>
					<path fill="#BFA4AC" d="M138.526,113.052c0,0-0.726,0.818-1.019,3.635c-0.291,2.818,0.324,10.867,0.324,10.867l3.031,0.222
						c0,0,0.612-13.904,0.195-14.574C140.64,112.53,139.284,112.749,138.526,113.052z"/>
					<path fill="#BFA4AC" d="M121.676,112.335c0,0-0.724,0.818-1.017,3.636c-0.292,2.818,0.321,10.867,0.321,10.867l3.034,0.221
						c0,0,0.613-13.905,0.195-14.574C123.792,111.813,122.434,112.032,121.676,112.335z"/>
					<path fill="#5A3D1B" d="M109.428,84.094c0,0,0.511-15.615,14.476-24.189c11.278-6.918,23.7-0.449,33.894,7.814
						c0,0,8.073-0.201,6.585,15.524c-1.486,15.721-8.804,17.768-8.804,17.768s-27.333-11.703-28.231-11.964
						C126.449,88.784,109.984,91.166,109.428,84.094z"/>
					<path fill="#FFD8C5" d="M141.189,70.171c-7.035-0.784-24.987-3.118-30.901,13.298c0,0-4.187-1.323-4.654,1.948
						c-0.472,3.266,4.274,3.681,4.274,3.681s-1.454,16.609,19.78,23.216c21.231,6.607,25.737-7.457,25.737-7.457
						s5.109,2.177,6.74-1.726c1.629-3.906-3.728-4.891-3.728-4.891S166.375,72.981,141.189,70.171z"/>
					<path fill="#F99DA4" d="M121.222,96.476c-0.409,1.164-2.046,1.787-3.654,1.381c-1.615-0.401-2.592-1.678-2.182-2.846
						c0.409-1.175,2.047-1.796,3.657-1.387C120.653,94.029,121.632,95.305,121.222,96.476z"/>
					<path fill="#F99DA4" d="M152.771,103.513c-0.409,1.169-2.047,1.791-3.657,1.383c-1.612-0.4-2.586-1.678-2.18-2.848
						c0.411-1.174,2.049-1.794,3.66-1.387C152.201,101.068,153.178,102.343,152.771,103.513z"/>
					<path fill="#DDB59F" d="M135.163,98.703c0,0,0.154,1.017-0.585,1.31c-0.737,0.297,0.886,0.822,1.216-0.128
						C136.128,98.938,135.874,98.602,135.163,98.703z"/>
					<path fill="#5A3D1B" d="M110.288,83.47c0,0,11.252-4.184,14.34-10.951c0,0,0.915,11.001,6.46,14.073
						c0,0-1.32-3.709-0.468-5.426c0,0,5.261,8.392,12.928,10.533c0,0-3.533-4.321-2.944-7.455c0,0,3.932,8.054,12.69,10.039
						c0,0-1.576-2.976-1.6-3.898c0,0,6.128,4.74,6.741,7.859c0,0,6.479-12.6,1.05-19.79c-5.43-7.191-21.841-13.614-27.374-13.467
						C126.577,65.133,109.354,74.082,110.288,83.47z"/>
					<circle fill="#FFFFFF" cx="122.317" cy="128.25" r="1.314"/>
					<circle fill="#FFFFFF" cx="138.991" cy="128.024" r="1.315"/>
					<path fill="#BFA4AC" d="M124.129,132.59c0.517-0.095,16.311-0.077,16.311-0.077s-4.57,6.256-9.704,5.705
						C125.605,137.672,124.129,132.59,124.129,132.59z"/>
					<polygon fill="#56B1D1" points="116.538,157.973 116.238,162.321 128.025,163.456 128.583,159.45 					"/>
					<polygon fill="#56B1D1" points="137.069,160.838 139.212,164.505 148.151,160.443 146.636,156.658 					"/>
					<g>
						<g>
							<path d="M143.232,99.035c-0.804,0.099-1.537-0.473-1.634-1.277c-0.102-0.805,0.475-1.537,1.277-1.636
								c0.807-0.099,1.537,0.473,1.636,1.279C144.609,98.203,144.036,98.938,143.232,99.035z"/>
						</g>
						<circle fill="#FFFFFF" cx="143.184" cy="97.893" r="0.258"/>
					</g>
					<g>
						<g>
							<circle cx="125.706" cy="92.251" r="1.467"/>
						</g>
						<circle fill="#FFFFFF" cx="125.836" cy="92.562" r="0.258"/>
					</g>
					<path fill="#FFD8C5" d="M149.126,122.592l12.218,4.181c0,0-2.373,4.729-0.655,4.187c1.712-0.543,2.218-1.899,2.218-1.899
						s1.687,4.713,3.178,3.373c1.489-1.34-0.57-4.019-0.57-4.019s3.381,2.632,4.468,1.021c1.084-1.609-1.882-3.205-1.882-3.205
						s2.864,0.704,3.094-1.019c0.224-1.724-2.567-1.321-2.567-1.321s0.655-1.669,0.057-2.953c-0.556-1.186-2.315-0.285-3.756,0.913
						c-0.119,0.097-0.237,0.202-0.349,0.305c-1.49,1.336-12.876-6.315-12.876-6.315L149.126,122.592z"/>
					<path fill="#D84853" d="M127.871,101.5c0,0,2.264,5.613,10.919,3.894C138.79,105.394,129.76,111.874,127.871,101.5z"/>
				</g>
				<text transform="matrix(1 0 0 1 39.0894 189.8466)" fill="#E8AD67" font-family="'Roboto-Regular'" font-size="18">Montessori VS </text>
				<text transform="matrix(1 0 0 1 162.4174 189.8466)" fill="#E8AD67" font-family="'Roboto-Bold'" font-size="18">St. Andrae</text>
				<text id="villach" transform="matrix(1 0 0 1 69.0132 211.4482)" fill="#E8AD67" font-family="'Roboto-Bold'" font-size="18">VILLACH</text>
			</g>
		</g>
	</g>
</g>
</svg>
