<?xml version="1.0" encoding="utf-8"?>
<!-- Generator: Adobe Illustrator 17.0.0, SVG Export Plug-In . SVG Version: 6.00 Build 0)  -->
<!DOCTYPE svg PUBLIC "-//W3C//DTD SVG 1.1//EN" "http://www.w3.org/Graphics/SVG/1.1/DTD/svg11.dtd">
<svg version="1.1" id="InteractiveSVG" xmlns="http://www.w3.org/2000/svg" xmlns:xlink="http://www.w3.org/1999/xlink" x="0px"
	 y="0px" width="1024px" height="1388px" viewBox="0 0 1024 1388" enable-background="new 0 0 1024 1388" xml:space="preserve">
<g id="timeline">
	<g id="volkschule">
		<rect x="505.545" y="86.91" fill="#D1652F" width="17" height="150"/>
		<polyline fill="#D1652F" points="509.334,151.768 497.023,161.092 514.566,172.051 		"/>
		<g>
			
				<text id="volkschule-date" transform="matrix(1 0 0 1 565.5449 171.8503)" fill="#D1652F" font-family="'Roboto-Medium'" font-size="28.2251">2004 - 2008</text>
		</g>
		<g id="volkschule-badge">
			<circle fill="#D1652F" cx="311.581" cy="161.91" r="130.5"/>
			<g id="volkschule-title">
				<text transform="matrix(1 0 0 1 284.416 80.9158)" fill="#FFFFFF" font-family="'Roboto-Bold'" font-size="35">Volkschule</text>
			</g>
			<g id="volkschule-details">
				<g id="boy-icon">
					<path fill="#FFD8C5" d="M295.486,202.441c-0.379-0.501-0.572-1.006-0.675-1.464c1.3-0.237,2.332-0.319,2.332-0.319
						l1.532-17.495l7.654-0.041c0,0-1.487,13.935-2.941,19.983C301.212,203.323,296.401,203.65,295.486,202.441z"/>
					<path fill="#FFD8C5" d="M323.05,203.213c-0.609-0.164-1.067-0.437-1.432-0.735c0.879-0.987,1.639-1.689,1.639-1.689
						l-9.57-14.725l6.006-4.745c0,0,7.408,11.887,9.993,17.55C328.104,200.379,324.518,203.605,323.05,203.213z"/>
					<path fill="#FFD8C5" d="M297.095,152.987l-15.513,2.833c0,0,1.966,4.998,0.282,4.293c-1.685-0.706-2.076-2.123-2.076-2.123
						s-2.129,4.61-3.516,3.12c-1.385-1.489,0.944-4.01,0.944-4.01s-3.661,2.352-4.616,0.625c-0.951-1.728,2.2-3.069,2.2-3.069
						s-2.964,0.45-3.036-1.311c-0.07-1.766,2.717-1.103,2.717-1.103s-0.512-1.748,0.213-2.992c0.666-1.15,2.363-0.079,3.71,1.266
						c0.112,0.111,0.222,0.223,0.326,0.338c1.388,1.493,13.621-4.632,13.621-4.632L297.095,152.987z"/>
					<path fill="#A6CDEC" d="M307.762,141.932l-19.063,4.389l3.627,8.176l5.629-1.704l-0.449,20.306l27.478-8.242l-1.28-13.86
						l6.166,3.428l2.378-8.423C332.248,146.002,313.248,141.246,307.762,141.932z"/>
					<path fill="#FFD8C5" d="M306.88,137.563l-0.27,6.415c0,0,1.059,2.856,4.208,2.67c3.147-0.187,4.482-2.29,4.482-2.29
						l-0.518-6.733L306.88,137.563z"/>
					<path fill="#386A93" d="M297.749,156.497l-1.507,36.796l10.59,1.011l3.856-13.923l8.58,15.035l7.591-3.139
						c0,0-0.997-18.488-1.073-21.297c-0.074-2.808-1.251-14.064-1.251-14.064L297.749,156.497z"/>
					<path fill="#BFA4AC" d="M318.22,143.495c0,0-0.737,0.83-1.034,3.69c-0.295,2.861,0.329,11.032,0.329,11.032l3.077,0.225
						c0,0,0.621-14.115,0.198-14.796C320.366,142.965,318.989,143.187,318.22,143.495z"/>
					<path fill="#BFA4AC" d="M301.114,142.767c0,0-0.735,0.83-1.032,3.691c-0.296,2.861,0.326,11.032,0.326,11.032l3.08,0.224
						c0,0,0.622-14.116,0.198-14.796C303.262,142.237,301.883,142.459,301.114,142.767z"/>
					<path fill="#5A3D1B" d="M288.679,114.096c0,0,0.519-15.852,14.696-24.557c11.449-7.023,24.06-0.456,34.409,7.933
						c0,0,8.196-0.204,6.685,15.76c-1.509,15.96-8.938,18.038-8.938,18.038s-27.749-11.881-28.66-12.146
						C305.959,118.858,289.244,121.276,288.679,114.096z"/>
					<path fill="#FFD8C5" d="M320.923,99.962c-7.142-0.796-25.367-3.165-31.371,13.5c0,0-4.251-1.343-4.725,1.978
						c-0.479,3.316,4.339,3.737,4.339,3.737s-1.476,16.862,20.081,23.569c21.554,6.707,26.128-7.57,26.128-7.57
						s5.187,2.21,6.842-1.752c1.654-3.965-3.785-4.965-3.785-4.965S346.492,102.814,320.923,99.962z"/>
					<path fill="#F99DA4" d="M300.653,126.667c-0.415,1.182-2.077,1.814-3.71,1.402c-1.64-0.407-2.631-1.704-2.215-2.889
						c0.415-1.193,2.078-1.823,3.713-1.408C300.075,124.182,301.069,125.478,300.653,126.667z"/>
					<path fill="#F99DA4" d="M332.681,133.811c-0.415,1.187-2.078,1.818-3.713,1.404c-1.637-0.406-2.625-1.704-2.213-2.891
						c0.417-1.192,2.08-1.821,3.716-1.408C332.103,131.328,333.095,132.623,332.681,133.811z"/>
					<path fill="#DDB59F" d="M314.806,128.928c0,0,0.156,1.032-0.594,1.33c-0.748,0.302,0.899,0.835,1.234-0.13
						C315.785,129.166,315.527,128.825,314.806,128.928z"/>
					<path fill="#5A3D1B" d="M289.552,113.463c0,0,11.423-4.248,14.558-11.118c0,0,0.929,11.168,6.558,14.287
						c0,0-1.34-3.765-0.475-5.509c0,0,5.341,8.52,13.125,10.693c0,0-3.587-4.387-2.989-7.568c0,0,3.992,8.176,12.883,10.192
						c0,0-1.6-3.021-1.624-3.957c0,0,6.221,4.812,6.843,7.979c0,0,6.578-12.792,1.066-20.091c-5.513-7.3-22.173-13.821-27.79-13.672
						C306.089,94.847,288.604,103.932,289.552,113.463z"/>
					<circle fill="#FFFFFF" cx="301.764" cy="158.924" r="1.334"/>
					<circle fill="#FFFFFF" cx="318.692" cy="158.694" r="1.335"/>
					<path fill="#BFA4AC" d="M303.604,163.33c0.525-0.096,16.559-0.078,16.559-0.078s-4.639,6.351-9.852,5.792
						C305.102,168.489,303.604,163.33,303.604,163.33z"/>
					<polygon fill="#56B1D1" points="295.897,189.099 295.593,193.513 307.559,194.665 308.126,190.598 					"/>
					<polygon fill="#56B1D1" points="316.741,192.007 318.916,195.73 327.991,191.606 326.453,187.764 					"/>
					<g>
						<g>
							<path d="M322.997,129.265c-0.816,0.101-1.56-0.48-1.659-1.296c-0.104-0.817,0.482-1.56,1.296-1.661
								c0.819-0.101,1.56,0.48,1.661,1.298C324.395,128.42,323.814,129.166,322.997,129.265z"/>
						</g>
						<circle fill="#FFFFFF" cx="322.949" cy="128.105" r="0.262"/>
					</g>
					<g>
						<g>
							<circle cx="305.205" cy="122.377" r="1.489"/>
						</g>
						<circle fill="#FFFFFF" cx="305.337" cy="122.693" r="0.262"/>
					</g>
					<path fill="#FFD8C5" d="M328.981,153.18l12.404,4.245c0,0-2.409,4.801-0.665,4.251c1.738-0.551,2.252-1.928,2.252-1.928
						s1.713,4.785,3.226,3.424c1.512-1.36-0.579-4.08-0.579-4.08s3.432,2.672,4.536,1.037c1.1-1.633-1.911-3.254-1.911-3.254
						s2.908,0.715,3.141-1.034c0.227-1.75-2.606-1.341-2.606-1.341s0.665-1.694,0.058-2.998c-0.564-1.204-2.35-0.289-3.813,0.927
						c-0.121,0.098-0.241,0.205-0.354,0.31c-1.513,1.356-13.072-6.411-13.072-6.411L328.981,153.18z"/>
					<path fill="#D84853" d="M307.403,131.767c0,0,2.298,5.698,11.085,3.953C318.488,135.72,309.32,142.299,307.403,131.767z"/>
				</g>
				<rect x="219.11" y="207.811" fill="none" width="187" height="68"/>
				<text transform="matrix(1 0 0 1 219.7134 221.0388)" fill="#E8AD67" font-family="'Roboto-Regular'" font-size="18">Montessori VS </text>
				<text transform="matrix(1 0 0 1 343.0414 221.0388)" fill="#E8AD67" font-family="'Roboto-Black'" font-size="18">St. Andrae</text>
				<text id="villach" transform="matrix(1 0 0 1 249.6372 242.6404)" fill="#E8AD67" font-family="'Roboto-Bold'" font-size="18">VILLACH</text>
			</g>
		</g>
	</g>
	<g id="design">
		<rect x="505.545" y="236.91" fill="#D1652F" width="17" height="150"/>
		<polyline fill="#D1652F" points="520.256,322.051 532.566,312.728 515.023,301.769 		"/>
		<text transform="matrix(1 0 0 1 336.6355 355.2693)" fill="#D1652F" font-family="'Roboto-Medium'" font-size="28.2251">2008 - 2012</text>
		<g id="design-badge">
			<circle fill="#D1652F" cx="711" cy="343.136" r="130.5"/>
			<g id="design-title">
				<text transform="matrix(1 0 0 1 682.464 262.1425)" fill="#FFFFFF" font-family="'ArialMT'" font-size="28.2251">DESIGN</text>
			</g>
			<g id="design-details">
				<rect x="616.468" y="389.036" fill="none" width="187" height="68"/>
				<text transform="matrix(1 0 0 1 630.1738 402.2654)" fill="#E8AD67" font-family="'ArialMT'" font-size="18">WORLDWIDE, A NEW WEB PAGE IS </text>
				<text transform="matrix(1 0 0 1 637.2567 423.8671)" fill="#E8AD67" font-family="'ArialMT'" font-size="18">DESIGNED EVERY 0.4 SECONDS</text>
				<g>
					<ellipse fill="#B24E2B" cx="702.667" cy="364.994" rx="28.333" ry="3.108"/>
					<path fill="#E8AD67" d="M747.848,309.725c-1.031-1.348-2.066-2.696-3.104-4.044c-0.12-0.09-0.126-0.073-0.021,0.049
						c-6.992-6.938-16.916-17.188-26.563-20.604c-6.818,0.049-34.996,29.881-34.142,30.987c3.136,4.072,7.953,7.688,11.637,11.258
						c6.826,6.612,14.438,18.08,22.894,22.438c1.931,0.993,13.041-11.333,14.405-12.698
						C740.178,329.892,756.135,320.071,747.848,309.725C746.795,308.389,748.896,311.035,747.848,309.725z"/>
					<path fill="#E8AD67" d="M747.744,303.904c-0.063-0.094-0.163-0.25-0.324-0.492C747.55,303.605,747.67,303.79,747.744,303.904z"
						/>
					<path fill="#FFCBA6" d="M674.914,358.85c0.208,0.291,0.407,0.587,0.604,0.885c0.246,0.143,0.49,0.287,0.734,0.438
						c0.109,0.005,0.215,0.02,0.324,0.021l42.611-9.315l-35.033-35.034l-9.229,42.196
						C674.922,358.309,674.912,358.579,674.914,358.85z"/>
					<path fill="#FF9740" d="M744.743,305.681c-5.46-5.326-9.369-9.872-15.87-14.435c-10.965,11.813-23.418,23.102-34.816,34.499
						c2.159,2.154,12.971,15.569,15.816,14.505c3.752-1.406,6.417-6.339,9.303-9.068C721.91,328.593,745.939,307.27,744.743,305.681
						C744.712,305.662,744.813,305.772,744.743,305.681z"/>
					<path fill="#FA871C" d="M747.848,309.725c-1.156-1.463-2.191-3.245-3.193-4.101c0.431,0.597-21.375,21.366-23.58,23.567
						c-1.896,1.896-12.609,10.944-10.925,12.646c2.837,2.854,5.636,6.324,8.563,9.084c1.121,1.056,9.459-8.576,10.964-10.082
						c5.245-5.244,9.55-9.049,14.794-14.293C751.135,319.882,753.733,317.077,747.848,309.725
						C746.795,308.389,749.34,311.608,747.848,309.725z"/>
					<path fill="#FFCBA6" d="M694.057,325.744c0,0,0.004-9.531-9.896-9.901l0.313,4.566L694.057,325.744z"/>
					<path fill="#FFCBA6" d="M718.831,350.519c0,0,0.003-9.531-9.901-9.897l0.313,4.563L718.831,350.519z"/>
					<path fill="#FFCBA6" d="M709.29,340.978c0,0,0.005-14.862-15.44-15.438l0.489,7.119L709.29,340.978z"/>
					<path fill="#3A2F19" d="M674.938,357.566c-0.016,0.432-0.021,0.855-0.021,1.283c0.208,0.291,0.407,0.587,0.604,0.885
						c0.244,0.143,0.488,0.287,0.732,0.438c0.218,0.009,0.426,0.037,0.646,0.051l7.57-1.656l-0.045-0.045
						c0-0.026-0.006-7.65-7.94-7.957v0.017l-0.016-0.017L674.938,357.566z"/>
				</g>
			</g>
		</g>
	</g>
	<g id="complain">
		<rect x="505.545" y="598.636" fill="#6DBACC" width="17" height="283"/>
		<polyline fill="#6DBACC" points="520.256,749.052 532.566,739.729 515.023,728.77 		"/>
		<text transform="matrix(1 0 0 1 407.2793 746.2693)" fill="#6DBACC" font-family="'ArialMT'" font-size="28.2251">12PM</text>
		<g id="complain-badge">
			<circle fill="#6DBACC" cx="717" cy="739.136" r="130.5"/>
			<g id="complain-title">
				<text transform="matrix(1 0 0 1 680.0996 654.8181)" fill="#FFFFFF" font-family="'ArialMT'" font-size="24.3935">COMPLAIN</text>
				<text transform="matrix(1 0 0 1 684.5508 678.9052)" fill="#FFFFFF" font-family="'ArialMT'" font-size="24.3935">ABOUT IE</text>
			</g>
			<g id="complain-details">
				<rect x="622.892" y="785.036" fill="none" width="187" height="68"/>
				<text transform="matrix(1 0 0 1 637.3319 798.2654)" fill="#B9E4EA" font-family="'ArialMT'" font-size="18">BROWSER QUIRKS CAN INCREASE </text>
				<text transform="matrix(1 0 0 1 646.9707 819.8669)" fill="#B9E4EA" font-family="'ArialMT'" font-size="18">PRODUCTION TIME UP TO 71%</text>
				<g>
					<path fill="#004F84" d="M743.486,744.156c-4.162-0.008-12.915-0.396-16.066-0.526c-3.182-0.132-4.639,5.476-11.518,5.478
						c-17.875,0.006-16.861-11.994-11.955-11.994c3.914,0,28.607,0,40.521-0.199c4.507-1.771,3.23-14.997-5.068-24.89
						c-8.82-10.506-18.236-10.804-18.236-10.804c7.334-5.055,18.039-5.946,21.012-4.561c2.978,1.39,3.646,0.299,3.646,0.299
						c-8.25-10.704-30.804,3.068-30.804,3.068c-30.229,2.577-33.005,29.438-33.005,29.438c2.68-3.271,7.83-6.046,9.416-7.533
						s1.586,0,1.586,0c-33.006,43.709,1.094,44.604-2.771,42.421c-3.865-2.181-2.678-13.578-2.678-13.578
						c1.092,1.288,9.813,15.267,28.741,14.569c18.935-0.693,26.813-16.422,27.807-19.099
						C744.445,745.335,744.143,744.657,743.486,744.156z M705.677,717.36c6.381-3.635,18.079-2.974,21.624,2.812
						s-0.354,6.604-1.949,7.27c-1.596,0.661-19.675,0-19.675,0C700.005,727.438,699.297,720.995,705.677,717.36z"/>
					<path opacity="0.56" fill="#0097C0" enable-background="new    " d="M736.968,717.105c-1.242,0.969-5.843-2.894-12.034-5.953
						c-6.126-3.184-11.961-4.606-11.914-6.185c-0.05-1.521,7.019-2.601,14.447,1.188
						C734.916,709.91,738.221,716.246,736.968,717.105z"/>
					<path opacity="0.56" fill="#0097C0" enable-background="new    " d="M698.653,748.472c5.729,4.177,17.164,7.82,10.646,8.689
						c-6.518,0.87-17.164-6.082-15.856-9.993C694.743,743.256,696.565,746.949,698.653,748.472z"/>
					<ellipse fill="#448FAA" cx="713.667" cy="770.994" rx="19.667" ry="2.024"/>
				</g>
			</g>
		</g>
	</g>
	<g id="build">
		<rect x="505.545" y="409.636" fill="#B1C482" width="17" height="189"/>
		<polyline fill="#B1C482" points="509.334,499.77 497.023,509.092 514.566,520.052 		"/>
		<text transform="matrix(1 0 0 1 558.6953 519.3474)" fill="#B1C482" font-family="'ArialMT'" font-size="28.2251">11AM</text>
		<g id="build-badge">
			<circle fill="#B1C482" cx="311" cy="511.136" r="130.5"/>
			<g id="build-title">
				<text transform="matrix(1 0 0 1 287.0991 430.1425)" fill="#FFFFFF" font-family="'ArialMT'" font-size="28.2251">BUILD</text>
			</g>
			<g id="build-details">
				<rect x="215.893" y="557.036" fill="none" width="187" height="68"/>
				<text transform="matrix(1 0 0 1 226.1045 570.2654)" fill="#EBF4CE" font-family="'ArialMT'" font-size="18">64% OF WEB DESIGNERS CONSIDER</text>
				<text transform="matrix(1 0 0 1 244.9507 591.8671)" fill="#EBF4CE" font-family="'ArialMT'" font-size="18">THEMSELVES SELF-TAUGHT</text>
				<g>
					<g>
						<path fill="#C5EAEA" d="M288.536,520.078c-7.41-4.364-14.82-8.729-22.229-13.096c-4.238-2.491-8.476-4.987-12.713-7.483
							c-3.251-1.914-2.378-2.964-2.378-6.992s-0.872-5.076,2.378-6.995c4.238-2.502,8.476-5.004,12.713-7.506
							c7.41-4.375,14.82-8.75,22.229-13.125c0,5.268,2.337,13.159-2.585,15.964c-6.823,3.889-13.646,7.776-20.469,11.664
							c6.484,3.668,12.968,7.337,19.452,11.005c2.426,1.372,3.602,1.264,3.602,4.002
							C288.536,511.703,288.536,515.891,288.536,520.078L288.536,520.078z"/>
						<path fill="#C5EAEA" d="M321.934,457.572c-3.695,14.128-7.396,28.258-11.096,42.385c-2.045,7.813-4.091,15.626-6.136,23.438
							c-1.417,5.411-7.584,2.955-12.645,2.955c3.723-14.127,7.447-28.254,11.17-42.381c2.059-7.813,4.118-15.626,6.177-23.438
							C310.825,455.139,316.882,457.572,321.934,457.572L321.934,457.572z"/>
						<path fill="#C5EAEA" d="M325.124,464.882c7.41,4.354,14.82,8.706,22.229,13.06c4.238,2.489,8.479,4.979,12.717,7.473
							c3.083,1.812,2.378,2.422,2.378,6.252c0,3.175,1.091,5.734-1.687,7.375c-4.002,2.359-8.005,4.727-12.008,7.09
							c-7.877,4.646-15.754,9.302-23.631,13.952c0-5.269-2.336-13.16,2.583-15.963c6.816-3.888,13.634-7.771,20.452-11.652
							c-6.479-3.672-12.957-7.344-19.438-11.016c-2.424-1.374-3.599-1.27-3.599-4.007
							C325.124,473.257,325.124,469.069,325.124,464.882L325.124,464.882z"/>
					</g>
					<g>
						<path fill="#D8EFEE" d="M262.599,488.413c3.488-2.453,7.213-4.396,11.053-6.573c3.574-2.025,6.571-4.487,10.172-5.979
							c0.282-1.014,0.618-1.981,1.028-2.898c0.002-1.027-0.104-2.147-0.357-3.396c-9.313,6.521-23.597,12.796-29.029,22.021
							c1.146-0.422,2.27-0.896,3.359-1.459C260.06,489.483,261.323,488.931,262.599,488.413z"/>
						<path fill="#D8EFEE" d="M296.609,524.328c1.562-0.972,2.794-2.034,3.74-4.275c1.004-2.382,1.871-4.866,2.675-7.343
							c1.916-5.901,2.993-12.075,4.829-18c1.9-6.132,3.223-12.047,4.358-18.409c0.896-5.016,2.386-9.813,3.716-14.676h-3.141
							c-0.424,0.224-0.813,0.501-1.146,0.847l-12.5,47.433c0.883,1.656,0.261,4.088-1.283,4.864l-2.45,9.298
							c0.297,0.037,0.597,0.086,0.899,0.166C296.409,524.26,296.507,524.297,296.609,524.328z"/>
						<path fill="#D8EFEE" d="M331.876,478.335c3.642,1.318,7.204,2.412,10.216,4.938c3.1,2.604,7.588,3.313,10.954,5.587
							c0.899,0.607,1.669,1.357,2.418,2.123c8.896-3.691-22.87-18.577-28.78-22.05c-0.201,1.688-0.139,3.137,0.133,4.416
							C328.264,475.324,329.545,477.491,331.876,478.335z"/>
					</g>
					<ellipse fill="#96A362" cx="304.667" cy="532.994" rx="28.333" ry="3.108"/>
					<path fill="#B0E2DE" d="M347.197,501.217c-3.488,2.453-7.213,4.396-11.057,6.573c-3.57,2.021-6.567,4.483-10.172,5.979
						c-0.278,1.018-0.618,1.985-1.024,2.902c-0.002,1.023,0.104,2.146,0.354,3.393c9.313-6.521,23.601-12.796,29.029-22.019
						c-1.146,0.422-2.271,0.892-3.359,1.459C349.736,500.147,348.473,500.699,347.197,501.217z"/>
					<path fill="#B0E2DE" d="M268.647,507.417c0.79,0.558,1.545,1.141,2.29,1.729c1.611,0.937,3.182,1.946,4.727,3.019
						c3.847,2.662,8.484,4.511,12.657,6.713c0.149-1.52,0.084-2.85-0.163-4.022c-1.45-1.972-2.732-4.138-5.063-4.979
						c-3.642-1.322-7.204-2.412-10.216-4.94c-3.096-2.6-7.588-3.313-10.954-5.587c-0.899-0.604-1.669-1.354-2.418-2.123
						c-1.312,0.545-1.733,1.335-1.49,2.295C261.44,502.327,265.01,504.85,268.647,507.417z"/>
				</g>
			</g>
		</g>
	</g>
	<g id="beer">
		<rect x="505.545" y="881.636" fill="#EAB83D" width="17" height="110"/>
		<polyline fill="#EAB83D" points="509.334,928.77 497.023,938.091 514.566,949.052 		"/>
		<text transform="matrix(1 0 0 1 558.6953 944.6501)" fill="#EAB83D" font-family="'ArialMT'" font-size="28.2251">3PM</text>
		<g id="beer-badge">
			<circle fill="#EAB83D" cx="313" cy="929.136" r="130.5"/>
			<g id="beer-title">
				<text transform="matrix(1 0 0 1 290.5708 848.1423)" fill="#FFFFFF" font-family="'ArialMT'" font-size="28.2251">BEER</text>
			</g>
			<g id="beer-details">
				<rect x="217.893" y="975.036" fill="none" width="187" height="68"/>
				<text transform="matrix(1 0 0 1 236.0879 988.2654)" fill="#EBF4CE" font-family="'ArialMT'" font-size="18">HEINEKEN IS THE #1 CHOICE OF</text>
				<text transform="matrix(1 0 0 1 240.1099 1009.8669)" fill="#EBF4CE" font-family="'ArialMT'" font-size="18">BEER AMONG WEB DESIGNERS</text>
				<g>
					<path fill="#D3A337" d="M343.833,946.606c-0.03,5.247-14.135,9.131-32.275,9.43c-18.146,0.795-32.181-3.053-32.481-8.251
						c-0.212-2.018,14.254-4.268,32.236-5.112C329.287,942.406,343.896,944.541,343.833,946.606z"/>
					<path fill="#F6EEDB" d="M342.244,932.101c-5.368,0.926-10.684,1.548-15.706,1.676c-15.42,0.487-30.633-3.306-45.948-4.436
						c0.149,7.226,0.36,14.701-0.02,16.097c-0.703,2.498,16.399,6.187,22.833,6.116c6.396,1.495,32.346-1.752,35.146-4.561
						c2.969-1.975,3.611-3.951,3.385-5.943C341.762,939.534,342.072,934.5,342.244,932.101z"/>
					<path fill="#E2D6BC" d="M292.819,942.656c6.647,1.459,13.382,2.382,20.14,2.192c7.422-0.192,14.708-1.433,21.9-3.851
						c2.303-0.764,4.703-1.372,7.091-2.043c-0.07-1.971,0.192-6.247,0.347-8.403c-5.366,1.027-10.686,1.786-15.718,1.969
						c-15.465,0.706-30.711-3.622-46.04-4.737c0.082,3.951,0.181,7.969,0.192,11.04C284.712,940.265,288.72,941.75,292.819,942.656z
						"/>
					<path fill="#E2D6BC" d="M286.191,932.215c-0.012-0.856,0.118-1.642,0.355-2.354c-1.982-0.176-3.969-0.369-5.955-0.52
						c0.149,7.227,0.361,14.698-0.021,16.097c-0.299,0.829,2.478,2.536,6.202,1.801
						C286.512,942.355,286.271,937.328,286.191,932.215z"/>
					<path fill="#E2D6BC" d="M341.935,941.047c-0.174-1.521,0.136-6.555,0.309-8.945c-4.73,0.624-9.417,1.008-13.881,0.976
						c0.056,0.267,0.098,0.544,0.096,0.842c-0.012,4.449-0.135,8.834-0.233,13.138c4.96,1.208,9.211,0.327,10.278-0.251
						C341.535,945.099,342.155,943.012,341.935,941.047z"/>
					<path fill="#E2D6BC" d="M359.635,901.885c-0.609-4.047-9.364-8.189-23.817-9.218c0.203,2.016,0.369,4.032,0.489,6.053
						c5.581,0.463,14.565,2.348,14.565,5.435c0,3.781,1.364,14.291,0,17.063c-1.051,2.145-11.033,2.412-13.309,2.429
						c0.307,3.228,0.648,6.456,1.004,9.684c0.057-0.782,0.097-1.287,0.097-1.287s2.572-0.259,10.067-2.027
						c7.499-1.766,10.225-9.33,10.908-15.135C360.315,909.079,360.315,906.427,359.635,901.885z"/>
					<g>
						<path fill="#F6EEDB" d="M337.663,924.604c3.509-0.143,9.187-0.607,10.651-2.016c-3.41,0.896-9.103,1.044-10.753,1.052
							C337.593,923.964,337.632,924.284,337.663,924.604z"/>
						<path fill="#F6EEDB" d="M359.635,901.885c-0.609-4.047-9.364-8.189-23.817-9.218c0.042,0.408,0.061,0.82,0.1,1.231
							c13.025,1.293,20.862,5.191,21.434,9.011c0.681,4.543,0.681,7.195,0,12.995c-0.567,4.841-2.573,10.896-7.565,13.8
							c6.695-2.201,9.202-9.308,9.852-14.827C360.315,909.079,360.315,906.427,359.635,901.885z"/>
						<path fill="#F6EEDB" d="M338.503,932.73c0.02,0.195,0.04,0.396,0.061,0.596c0.021-0.236,0.031-0.434,0.048-0.613
							C338.571,932.719,338.54,932.724,338.503,932.73z"/>
					</g>
					<path fill="#F6EEDB" d="M348.011,926.031c-2.193,0.915-5.609,1.465-10.228,1.638c0.114,1.196,0.239,2.395,0.37,3.594
						c1.538-0.287,3.86-0.768,7.177-1.547c1.021-0.24,1.914-0.636,2.719-1.127C348.024,927.735,348.014,926.882,348.011,926.031z"/>
					<path fill="#F6EEDB" d="M354.309,903.282c-0.325-2.161-6.341-5.673-18.252-6.987c0.043,0.523,0.084,1.043,0.123,1.559
						c4.924,0.617,14.69,2.467,14.69,7.417c0,1.035,0.111,2.651,0.24,4.524c0.098,1.418,0.182,2.738,0.248,3.979
						c0.465,3.343,0.479,6.674,0.496,10.003c1.616-2.853,2.225-6.124,2.444-7.996C354.963,910.121,354.965,907.668,354.309,903.282z
						"/>
					<path fill="#E2D6BC" d="M315.192,933.177c-0.002-0.175,0.03-0.33,0.054-0.491c-3.526-0.178-7.056-0.55-10.577-0.914
						c0.007,0.141,0.023,0.276,0.023,0.421c-0.027,5.174,0.116,10.301,0.282,15.436c2.317,0.642,6.182,1.032,10.174-0.172
						C315.266,942.716,315.271,937.985,315.192,933.177z"/>
					<path fill="#D88430" d="M341.44,882.724h-2.886c0.086,1.626,0.142,3.247,0.152,4.866c0.027,6.401-1.058,12.764-0.771,18.979
						c0.511,11.059,0.518,20.841,0.545,31.418c0.683-0.013,1.366-0.024,2.05-0.029c0.466-0.056,0.936-0.104,1.408-0.146
						c0.073-0.165,0.128-0.34,0.179-0.511C341.969,918.807,341.959,889.804,341.44,882.724z"/>
					<g>
						<path fill="#EA9E42" d="M279.991,882.724c0.002-0.028,0.785,21.916,0.411,29.564c-0.301,6.206,0.231,17.127,0.091,23.023
							c1.703,4.943,15.91,7.321,16.52,7.109c10.156,1.489,20.434,0.25,30.554-1.203c4.327-0.625,8.61-1.653,12.828-2.795
							c0.51-0.189,1.024-0.378,1.531-0.562c0.079-0.19,0.137-0.378,0.19-0.563c-0.229-18.433-0.352-47.453-0.96-54.575
							C320.768,882.724,300.379,882.724,279.991,882.724L279.991,882.724z"/>
						<path fill="#D88430" d="M326.188,939.94c13.106-2.745,10.508-15.276,10.655-18.889c0.396-12.505,0.512-25.253,0.78-38.327
							c1.281,0,2.563,0,3.843,0c-0.002-0.026-0.746,21.982-0.36,29.65c0.313,6.224-0.265,19.23-0.114,25.114
							c-2.01,0.649-4.067,1.34-6.231,2.076C334.912,938.01,326.15,941.677,326.188,939.94z"/>
					</g>
					<path fill="#EAB96C" d="M300.025,888.085c-3.565-0.051-7.136-0.189-10.707-0.381c-0.811,14.21,0.473,37.328,1.253,48.813
						c3.53,1.258,11.6,3.065,10.565-0.001C300.369,934.256,300.55,892.534,300.025,888.085z"/>
					<path fill="#EAB96C" d="M321.397,883.487c-2.303,0.33-4.614,0.61-6.925,0.807c-1.025,16.326,0.754,41.462,0.869,52.968
						c2.301,0.47,4.715,0.478,6.975-0.035C322.927,930.658,321.895,887.261,321.397,883.487z"/>
					<path fill="#F6EEDB" d="M319.179,885.549c6.869-0.574,20.809-0.928,21.147,2.122c0.438,3.677,4.662,5.491,4.86,2.376
						c0.104-3.576,3.991-11.029-11.778-16.664c-16.126-4.192-13.373-2.662-22.129-3.22c-8.758,0.205-4.633-8.947-21.733-1.534
						c-16.742,9.102-17.22,18.756-9.534,19.82c7.907,0.316,13.053,3.349,19.766,3.305
						C306.513,891.604,313.329,885.949,319.179,885.549z"/>
					<path fill="#E2D6BC" d="M341.412,887.631c-0.418-1.095-0.766-4.057-2.047-5.321c-3.587-3.646-9.421-5.413-14.45-5.82
						c-7.404-0.987-14.54,0.521-21.87,2.949c-6.434,2.22-12.882,3.522-19.021,1.438c-2.756-0.878-4.805-2.527-6.021-4.467
						c-4.527,6.688-3.242,10.604,2.011,11.354c7.917-0.068,13.077,3.382,19.802,3.312c6.748-0.236,13.568-6.916,19.398-7.052
						c6.869-0.469,20.662,0.763,20.978,3.396c0.174,1.276,1.002,2.449,1.914,2.901C341.912,889.464,341.765,888.557,341.412,887.631
						z"/>
				</g>
			</g>
		</g>
	</g>
</g>
</svg>
