<?xml version="1.0" encoding="utf-8"?>
<!-- Generator: Adobe Illustrator 17.0.0, SVG Export Plug-In . SVG Version: 6.00 Build 0)  -->
<!DOCTYPE svg PUBLIC "-//W3C//DTD SVG 1.1//EN" "http://www.w3.org/Graphics/SVG/1.1/DTD/svg11.dtd">
<svg version="1.1" id="InteractiveSVG" xmlns="http://www.w3.org/2000/svg" xmlns:xlink="http://www.w3.org/1999/xlink" x="0px"
	 y="0px" width="1024px" height="1388px" viewBox="0 0 1024 1388" enable-background="new 0 0 1024 1388" xml:space="preserve">
<rect x="505.545" y="1352.936" fill="#6DBACC" width="17" height="283"/>
<polyline fill="#6DBACC" points="520.256,1503.352 532.566,1494.029 515.023,1483.07 "/>
<text transform="matrix(1 0 0 1 407.2793 1500.5693)" fill="#6DBACC" font-family="'ArialMT'" font-size="28.2251">12PM</text>
<g id="complain-badge">
	<circle fill="#6DBACC" cx="717" cy="1493.436" r="130.5"/>
	<g id="complain-title">
		<text transform="matrix(1 0 0 1 680.0996 1409.1182)" fill="#FFFFFF" font-family="'ArialMT'" font-size="24.3935">COMPLAIN</text>
		<text transform="matrix(1 0 0 1 684.5508 1433.2052)" fill="#FFFFFF" font-family="'ArialMT'" font-size="24.3935">ABOUT IE</text>
	</g>
	<g id="complain-details">
		<rect x="622.892" y="1539.336" fill="none" width="187" height="68"/>
		<text transform="matrix(1 0 0 1 637.3319 1552.5654)" fill="#B9E4EA" font-family="'ArialMT'" font-size="18">BROWSER QUIRKS CAN INCREASE </text>
		<text transform="matrix(1 0 0 1 646.9707 1574.1669)" fill="#B9E4EA" font-family="'ArialMT'" font-size="18">PRODUCTION TIME UP TO 71%</text>
		<g>
			<path fill="#004F84" d="M743.486,1498.456c-4.162-0.008-12.915-0.396-16.066-0.526c-3.182-0.132-4.639,5.476-11.518,5.478
				c-17.875,0.006-16.861-11.994-11.955-11.994c3.914,0,28.607,0,40.521-0.199c4.507-1.771,3.23-14.997-5.068-24.89
				c-8.82-10.506-18.236-10.804-18.236-10.804c7.334-5.055,18.039-5.946,21.012-4.561c2.978,1.39,3.646,0.299,3.646,0.299
				c-8.25-10.704-30.804,3.068-30.804,3.068c-30.229,2.577-33.005,29.438-33.005,29.438c2.68-3.271,7.83-6.046,9.416-7.533
				s1.586,0,1.586,0c-33.006,43.709,1.094,44.604-2.771,42.421c-3.865-2.181-2.678-13.578-2.678-13.578
				c1.092,1.288,9.813,15.267,28.741,14.569c18.935-0.693,26.813-16.422,27.807-19.099
				C744.445,1499.635,744.143,1498.957,743.486,1498.456z M705.677,1471.66c6.381-3.635,18.079-2.974,21.624,2.812
				s-0.354,6.604-1.949,7.27c-1.596,0.661-19.675,0-19.675,0C700.005,1481.738,699.297,1475.295,705.677,1471.66z"/>
			<path opacity="0.56" fill="#0097C0" enable-background="new    " d="M736.968,1471.405c-1.242,0.969-5.843-2.894-12.034-5.953
				c-6.126-3.184-11.961-4.606-11.914-6.185c-0.05-1.521,7.019-2.601,14.447,1.188
				C734.916,1464.21,738.221,1470.546,736.968,1471.405z"/>
			<path opacity="0.56" fill="#0097C0" enable-background="new    " d="M698.653,1502.772c5.729,4.177,17.164,7.82,10.646,8.689
				c-6.518,0.87-17.164-6.082-15.856-9.993C694.743,1497.556,696.565,1501.249,698.653,1502.772z"/>
			<ellipse fill="#448FAA" cx="713.667" cy="1525.294" rx="19.667" ry="2.024"/>
		</g>
	</g>
</g>
<rect x="505.545" y="1163.936" fill="#B1C482" width="17" height="189"/>
<polyline fill="#B1C482" points="509.334,1254.07 497.023,1263.392 514.566,1274.352 "/>
<text transform="matrix(1 0 0 1 558.6953 1273.6475)" fill="#B1C482" font-family="'ArialMT'" font-size="28.2251">11AM</text>
<rect x="505.545" y="1635.936" fill="#EAB83D" width="17" height="110"/>
<polyline fill="#EAB83D" points="509.334,1683.07 497.023,1692.391 514.566,1703.352 "/>
<text transform="matrix(1 0 0 1 558.6953 1698.9501)" fill="#EAB83D" font-family="'ArialMT'" font-size="28.2251">3PM</text>
<g id="beer-badge">
	<circle fill="#EAB83D" cx="313" cy="1683.436" r="130.5"/>
	<g id="beer-title">
		<text transform="matrix(1 0 0 1 290.5708 1602.4423)" fill="#FFFFFF" font-family="'ArialMT'" font-size="28.2251">BEER</text>
	</g>
	<g id="beer-details">
		<rect x="217.893" y="1729.336" fill="none" width="187" height="68"/>
		<text transform="matrix(1 0 0 1 236.0879 1742.5654)" fill="#EBF4CE" font-family="'ArialMT'" font-size="18">HEINEKEN IS THE #1 CHOICE OF</text>
		<text transform="matrix(1 0 0 1 240.1099 1764.1669)" fill="#EBF4CE" font-family="'ArialMT'" font-size="18">BEER AMONG WEB DESIGNERS</text>
		<g>
			<path fill="#D3A337" d="M343.833,1700.906c-0.03,5.247-14.135,9.131-32.275,9.43c-18.146,0.795-32.181-3.053-32.481-8.251
				c-0.212-2.018,14.254-4.268,32.236-5.112C329.287,1696.706,343.896,1698.841,343.833,1700.906z"/>
			<path fill="#F6EEDB" d="M342.244,1686.401c-5.368,0.926-10.684,1.548-15.706,1.676c-15.42,0.487-30.633-3.306-45.948-4.436
				c0.149,7.226,0.36,14.701-0.02,16.097c-0.703,2.498,16.399,6.187,22.833,6.116c6.396,1.495,32.346-1.752,35.146-4.561
				c2.969-1.975,3.611-3.951,3.385-5.943C341.762,1693.834,342.072,1688.8,342.244,1686.401z"/>
			<path fill="#E2D6BC" d="M292.819,1696.956c6.647,1.459,13.382,2.382,20.14,2.192c7.422-0.192,14.708-1.433,21.9-3.851
				c2.303-0.764,4.703-1.372,7.091-2.043c-0.07-1.971,0.192-6.247,0.347-8.403c-5.366,1.027-10.686,1.786-15.718,1.969
				c-15.465,0.706-30.711-3.622-46.04-4.737c0.082,3.951,0.181,7.969,0.192,11.04C284.712,1694.565,288.72,1696.05,292.819,1696.956
				z"/>
			<path fill="#E2D6BC" d="M286.191,1686.515c-0.012-0.856,0.118-1.642,0.355-2.354c-1.982-0.176-3.969-0.369-5.955-0.52
				c0.149,7.227,0.361,14.698-0.021,16.097c-0.299,0.829,2.478,2.536,6.202,1.801
				C286.512,1696.655,286.271,1691.628,286.191,1686.515z"/>
			<path fill="#E2D6BC" d="M341.935,1695.347c-0.174-1.521,0.136-6.555,0.309-8.945c-4.73,0.624-9.417,1.008-13.881,0.976
				c0.056,0.267,0.098,0.544,0.096,0.842c-0.012,4.449-0.135,8.834-0.233,13.138c4.96,1.208,9.211,0.327,10.278-0.251
				C341.535,1699.399,342.155,1697.312,341.935,1695.347z"/>
			<path fill="#E2D6BC" d="M359.635,1656.185c-0.609-4.047-9.364-8.189-23.817-9.218c0.203,2.016,0.369,4.032,0.489,6.053
				c5.581,0.463,14.565,2.348,14.565,5.435c0,3.781,1.364,14.291,0,17.063c-1.051,2.145-11.033,2.412-13.309,2.429
				c0.307,3.228,0.648,6.456,1.004,9.684c0.057-0.782,0.097-1.287,0.097-1.287s2.572-0.259,10.067-2.027
				c7.499-1.766,10.225-9.33,10.908-15.135C360.315,1663.379,360.315,1660.727,359.635,1656.185z"/>
			<g>
				<path fill="#F6EEDB" d="M337.663,1678.904c3.509-0.143,9.187-0.607,10.651-2.016c-3.41,0.896-9.103,1.044-10.753,1.052
					C337.593,1678.264,337.632,1678.584,337.663,1678.904z"/>
				<path fill="#F6EEDB" d="M359.635,1656.185c-0.609-4.047-9.364-8.189-23.817-9.218c0.042,0.408,0.061,0.82,0.1,1.231
					c13.025,1.293,20.862,5.191,21.434,9.011c0.681,4.543,0.681,7.195,0,12.995c-0.567,4.841-2.573,10.896-7.565,13.8
					c6.695-2.201,9.202-9.308,9.852-14.827C360.315,1663.379,360.315,1660.727,359.635,1656.185z"/>
				<path fill="#F6EEDB" d="M338.503,1687.03c0.02,0.195,0.04,0.396,0.061,0.596c0.021-0.236,0.031-0.434,0.048-0.613
					C338.571,1687.019,338.54,1687.024,338.503,1687.03z"/>
			</g>
			<path fill="#F6EEDB" d="M348.011,1680.331c-2.193,0.915-5.609,1.465-10.228,1.638c0.114,1.196,0.239,2.395,0.37,3.594
				c1.538-0.287,3.86-0.768,7.177-1.547c1.021-0.24,1.914-0.636,2.719-1.127C348.024,1682.035,348.014,1681.182,348.011,1680.331z"
				/>
			<path fill="#F6EEDB" d="M354.309,1657.582c-0.325-2.161-6.341-5.673-18.252-6.987c0.043,0.523,0.084,1.043,0.123,1.559
				c4.924,0.617,14.69,2.467,14.69,7.417c0,1.035,0.111,2.651,0.24,4.524c0.098,1.418,0.182,2.738,0.248,3.979
				c0.465,3.343,0.479,6.674,0.496,10.003c1.616-2.853,2.225-6.124,2.444-7.996C354.963,1664.421,354.965,1661.968,354.309,1657.582
				z"/>
			<path fill="#E2D6BC" d="M315.192,1687.477c-0.002-0.175,0.03-0.33,0.054-0.491c-3.526-0.178-7.056-0.55-10.577-0.914
				c0.007,0.141,0.023,0.276,0.023,0.421c-0.027,5.174,0.116,10.301,0.282,15.436c2.317,0.642,6.182,1.032,10.174-0.172
				C315.266,1697.016,315.271,1692.285,315.192,1687.477z"/>
			<path fill="#D88430" d="M341.44,1637.024h-2.886c0.086,1.626,0.142,3.247,0.152,4.866c0.027,6.401-1.058,12.764-0.771,18.979
				c0.511,11.059,0.518,20.841,0.545,31.418c0.683-0.013,1.366-0.024,2.05-0.029c0.466-0.056,0.936-0.104,1.408-0.146
				c0.073-0.165,0.128-0.34,0.179-0.511C341.969,1673.107,341.959,1644.104,341.44,1637.024z"/>
			<g>
				<path fill="#EA9E42" d="M279.991,1637.024c0.002-0.028,0.785,21.916,0.411,29.564c-0.301,6.206,0.231,17.127,0.091,23.023
					c1.703,4.943,15.91,7.321,16.52,7.109c10.156,1.489,20.434,0.25,30.554-1.203c4.327-0.625,8.61-1.653,12.828-2.795
					c0.51-0.189,1.024-0.378,1.531-0.562c0.079-0.19,0.137-0.378,0.19-0.563c-0.229-18.433-0.352-47.453-0.96-54.575
					C320.768,1637.024,300.379,1637.024,279.991,1637.024L279.991,1637.024z"/>
				<path fill="#D88430" d="M326.188,1694.24c13.106-2.745,10.508-15.276,10.655-18.889c0.396-12.505,0.512-25.253,0.78-38.327
					c1.281,0,2.563,0,3.843,0c-0.002-0.026-0.746,21.982-0.36,29.65c0.313,6.224-0.265,19.23-0.114,25.114
					c-2.01,0.649-4.067,1.34-6.231,2.076C334.912,1692.31,326.15,1695.977,326.188,1694.24z"/>
			</g>
			<path fill="#EAB96C" d="M300.025,1642.385c-3.565-0.051-7.136-0.189-10.707-0.381c-0.811,14.21,0.473,37.328,1.253,48.813
				c3.53,1.258,11.6,3.065,10.565-0.001C300.369,1688.556,300.55,1646.834,300.025,1642.385z"/>
			<path fill="#EAB96C" d="M321.397,1637.787c-2.303,0.33-4.614,0.61-6.925,0.807c-1.025,16.326,0.754,41.462,0.869,52.968
				c2.301,0.47,4.715,0.478,6.975-0.035C322.927,1684.958,321.895,1641.561,321.397,1637.787z"/>
			<path fill="#F6EEDB" d="M319.179,1639.849c6.869-0.574,20.809-0.928,21.147,2.122c0.438,3.677,4.662,5.491,4.86,2.376
				c0.104-3.576,3.991-11.029-11.778-16.664c-16.126-4.192-13.373-2.662-22.129-3.22c-8.758,0.205-4.633-8.947-21.733-1.534
				c-16.742,9.102-17.22,18.756-9.534,19.82c7.907,0.316,13.053,3.349,19.766,3.305
				C306.513,1645.904,313.329,1640.249,319.179,1639.849z"/>
			<path fill="#E2D6BC" d="M341.412,1641.931c-0.418-1.095-0.766-4.057-2.047-5.321c-3.587-3.646-9.421-5.413-14.45-5.82
				c-7.404-0.987-14.54,0.521-21.87,2.949c-6.434,2.22-12.882,3.522-19.021,1.438c-2.756-0.878-4.805-2.527-6.021-4.467
				c-4.527,6.688-3.242,10.604,2.011,11.354c7.917-0.068,13.077,3.382,19.802,3.312c6.748-0.236,13.568-6.916,19.398-7.052
				c6.869-0.469,20.662,0.763,20.978,3.396c0.174,1.276,1.002,2.449,1.914,2.901
				C341.912,1643.764,341.765,1642.857,341.412,1641.931z"/>
		</g>
	</g>
</g>
<g id="htl">
	<g id="it-line_1_">
		<polygon fill="#B1C482" points="519.609,979.219 491.482,962.98 519.609,946.74 		"/>
		<rect x="503.5" y="862.98" fill="#B1C482" width="17" height="200"/>
	</g>
	
		<text id="it-date_1_" transform="matrix(1 0 0 1 558.6957 971.2284)" fill="#B1C482" font-family="'Roboto-Medium'" font-size="28.2251">2014 - TODAY</text>
	<g id="htl-badge">
		<circle id="it-circle_1_" fill="#B1C482" cx="311.581" cy="962.98" r="130.5"/>
		<g id="it-title_1_">
			<text transform="matrix(1 0 0 1 287.6801 881.9863)" fill="#FFFFFF" font-family="'Roboto-Bold'" font-size="35">HTL Villach</text>
		</g>
		<g id="htl-details">
			<rect x="216.474" y="1008.88" fill="none" width="187" height="68"/>
			<text transform="matrix(1 0 0 1 226.6855 1022.1093)" fill="#EBF4CE" font-family="'ArialMT'" font-size="18">Media Engineering</text>
			<g id="htl-icon">
				<g>
					<path fill="#C5EAEA" d="M289.117,971.922c-7.41-4.364-14.82-8.729-22.229-13.096c-4.238-2.491-8.476-4.987-12.713-7.483
						c-3.251-1.914-2.378-2.964-2.378-6.992s-0.872-5.076,2.378-6.995c4.238-2.502,8.476-5.004,12.713-7.506
						c7.41-4.375,14.82-8.75,22.229-13.125c0,5.268,2.337,13.159-2.585,15.964c-6.823,3.889-13.646,7.776-20.469,11.664
						c6.484,3.668,12.968,7.337,19.452,11.005c2.426,1.372,3.602,1.264,3.602,4.002
						C289.117,963.547,289.117,967.735,289.117,971.922L289.117,971.922z"/>
					<path fill="#C5EAEA" d="M322.515,909.416c-3.695,14.128-7.396,28.258-11.096,42.385c-2.045,7.813-4.091,15.626-6.136,23.438
						c-1.417,5.411-7.584,2.955-12.645,2.955c3.723-14.127,7.447-28.254,11.17-42.381c2.059-7.813,4.118-15.626,6.177-23.438
						C311.406,906.983,317.463,909.416,322.515,909.416L322.515,909.416z"/>
					<path fill="#C5EAEA" d="M325.705,916.726c7.41,4.354,14.82,8.706,22.229,13.06c4.238,2.489,8.479,4.979,12.717,7.473
						c3.083,1.812,2.378,2.422,2.378,6.252c0,3.175,1.091,5.734-1.687,7.375c-4.002,2.359-8.005,4.727-12.008,7.09
						c-7.877,4.646-15.754,9.302-23.631,13.952c0-5.269-2.336-13.16,2.583-15.963c6.816-3.888,13.634-7.771,20.452-11.652
						c-6.479-3.672-12.957-7.344-19.438-11.016c-2.424-1.374-3.599-1.27-3.599-4.007
						C325.705,925.101,325.705,920.913,325.705,916.726L325.705,916.726z"/>
				</g>
				<g>
					<path fill="#D8EFEE" d="M263.18,940.257c3.488-2.453,7.213-4.396,11.053-6.573c3.574-2.025,6.571-4.487,10.172-5.979
						c0.282-1.014,0.618-1.981,1.028-2.898c0.002-1.027-0.104-2.147-0.357-3.396c-9.313,6.521-23.597,12.796-29.029,22.021
						c1.146-0.422,2.27-0.896,3.359-1.459C260.641,941.327,261.904,940.775,263.18,940.257z"/>
					<path fill="#D8EFEE" d="M297.19,976.172c1.562-0.972,2.794-2.034,3.74-4.275c1.004-2.382,1.871-4.866,2.675-7.343
						c1.916-5.901,2.993-12.075,4.829-18c1.9-6.132,3.223-12.047,4.358-18.409c0.896-5.016,2.386-9.813,3.716-14.676h-3.141
						c-0.424,0.224-0.813,0.501-1.146,0.847l-12.5,47.433c0.883,1.656,0.261,4.088-1.283,4.864l-2.45,9.298
						c0.297,0.037,0.597,0.086,0.899,0.166C296.99,976.104,297.088,976.141,297.19,976.172z"/>
					<path fill="#D8EFEE" d="M332.457,930.179c3.642,1.318,7.204,2.412,10.216,4.938c3.1,2.604,7.588,3.313,10.954,5.587
						c0.899,0.607,1.669,1.357,2.418,2.123c8.896-3.691-22.87-18.577-28.78-22.05c-0.201,1.688-0.139,3.137,0.133,4.416
						C328.845,927.168,330.126,929.335,332.457,930.179z"/>
				</g>
				<ellipse fill="#96A362" cx="305.248" cy="984.838" rx="28.333" ry="3.108"/>
				<path fill="#B0E2DE" d="M347.778,953.061c-3.488,2.453-7.213,4.396-11.057,6.573c-3.57,2.021-6.567,4.483-10.172,5.979
					c-0.278,1.018-0.618,1.985-1.024,2.902c-0.002,1.023,0.104,2.146,0.354,3.393c9.313-6.521,23.601-12.796,29.029-22.019
					c-1.146,0.422-2.271,0.892-3.359,1.459C350.317,951.991,349.054,952.543,347.778,953.061z"/>
				<path fill="#B0E2DE" d="M269.228,959.261c0.79,0.558,1.545,1.141,2.29,1.729c1.611,0.937,3.182,1.946,4.727,3.019
					c3.847,2.662,8.484,4.511,12.657,6.713c0.149-1.52,0.084-2.85-0.163-4.022c-1.45-1.972-2.732-4.138-5.063-4.979
					c-3.642-1.322-7.204-2.412-10.216-4.94c-3.096-2.6-7.588-3.313-10.954-5.587c-0.899-0.604-1.669-1.354-2.418-2.123
					c-1.312,0.545-1.733,1.335-1.49,2.295C262.021,954.171,265.591,956.694,269.228,959.261z"/>
			</g>
		</g>
	</g>
</g>
<g id="usa">
	<g id="usa-line">
		<rect x="503.5" y="663.084" fill="#39A5B7" width="17" height="200"/>
		<polygon fill="#39A5B7" points="503.5,779.323 531.627,763.084 503.5,746.844 		"/>
	</g>
	
		<text id="usa-date" transform="matrix(1 0 0 1 313.5811 771.3313)" fill="#39A5B7" font-family="'Roboto-Medium'" font-size="28.2251">2013 - 2014</text>
	<g id="usa-badge">
		<circle id="usa-circle" fill="#39A5B7" cx="712.667" cy="763.084" r="130.5"/>
		<g id="usa-title">
			<text transform="matrix(1 0 0 1 684.1309 682.0897)" fill="#FFFFFF" font-family="'Roboto-Bold'" font-size="35">USA</text>
		</g>
		<g id="usa-details">
			<g id="usa-icon">
				<g>
					<g>
						<path fill="#CC3300" d="M746.978,721.565h-67.354c-0.097,0-0.192,0.01-0.288,0.015v96.033
							c0.096,0.005,0.191,0.014,0.288,0.014h67.354c3.166,0,5.757-2.573,5.757-5.718v-84.626
							C752.735,724.138,750.145,721.565,746.978,721.565z"/>
						<path opacity="0.65" fill="#CC5333" enable-background="new    " d="M746.978,721.565h-67.354
							c-0.097,0-0.192,0.01-0.288,0.015v96.033c0.096,0.005,0.191,0.014,0.288,0.014h67.354c3.166,0,5.757-2.573,5.757-5.718
							v-84.626C752.735,724.138,750.145,721.565,746.978,721.565z"/>
						<g>
							<path fill="#FFFFFF" d="M751.016,800.019v-0.14h-71.307v0.012c-4.293,0.131-7.735,3.706-7.735,8.107
								c0,4.484,3.493,7.935,7.898,7.935c0.549,0,1.139,0.039,1.68,0.021h69.313c-3.638-0.755-5.086-4.029-5.086-7.955
								C745.779,804.018,747.304,800.714,751.016,800.019z"/>
							<g>
								<g>
									<defs>
										<path id="SVGID_1_" d="M751.016,800.019v-0.14h-71.307v0.012c-4.293,0.131-7.735,3.706-7.735,8.107
											c0,4.484,3.493,7.935,7.898,7.935c0.549,0,1.06,0.025,1.68,0.021h69.313c-3.638-0.755-5.086-4.029-5.086-7.955
											C745.779,804.018,747.304,800.714,751.016,800.019z"/>
									</defs>
									<clipPath id="SVGID_2_">
										<use xlink:href="#SVGID_1_"  overflow="visible"/>
									</clipPath>
									<g clip-path="url(#SVGID_2_)">
										<rect x="671.651" y="801.894" fill="#CCD4D3" width="80.036" height="0.779"/>
										<rect x="671.651" y="805.831" fill="#CCD4D3" width="80.036" height="0.779"/>
										<rect x="671.651" y="809.768" fill="#CCD4D3" width="80.036" height="0.779"/>
										<rect x="671.651" y="811.736" fill="#CCD4D3" width="80.036" height="0.779"/>
										<rect x="671.651" y="813.705" fill="#CCD4D3" width="80.036" height="0.779"/>
										<rect x="671.651" y="807.8" fill="#CCD4D3" width="80.036" height="0.779"/>
										<rect x="671.651" y="803.863" fill="#CCD4D3" width="80.036" height="0.779"/>
									</g>
								</g>
							</g>
						</g>
						<g>
							<path fill="#CC3300" d="M747.196,705.49h-67.354c-0.097,0-0.192,0.01-0.288,0.014v96.033
								c0.096,0.005,0.191,0.014,0.288,0.014h67.354c3.166,0,5.757-2.573,5.757-5.718v-84.625
								C752.952,708.063,750.362,705.49,747.196,705.49z"/>
						</g>
						<path fill="#3E2723" d="M679.359,815.939c-0.065,0.002-0.206-0.039-0.271-0.041c-2.715-0.081-7.005-3.392-7.005-7.426
							s3.026-6.992,7.06-6.992c0.066,0,0.37,0.037,0.435,0.041l-0.24-79.942c0.072-0.004,0.145-0.008,0.217-0.011v-16.057
							c-0.137-0.006-0.273-0.021-0.412-0.021c-4.066,0-7.883,2.665-8.503,6.494c-0.138,0.854-0.15,2.782-0.137,3.459
							c0,0-0.184,92.955-0.184,93.342c0,0.387,0.033,0.764,0.081,1.138v0.247h0.038c0.666,4.214,4.304,7.44,8.705,7.44
							c0.066,0,0.129-0.008,0.195-0.01L679.359,815.939z"/>
					</g>
					<polygon fill="#FF0000" points="686.419,820.677 683.106,818.07 679.793,820.677 679.793,814.269 679.793,807.861 
						683.106,807.861 686.419,807.861 686.419,814.269 					"/>
					<path opacity="0.35" fill="#CC5333" enable-background="new    " d="M715.201,705.49h-35.36c-0.097,0-0.192,0.01-0.288,0.015
						v96.033c0.096,0.005,0.191,0.015,0.288,0.015h35.36V705.49z"/>
				</g>
				<path fill="#3E2723" d="M735.66,728.135h-42.185c-1.641,0-2.984-1.343-2.984-2.984v-0.571c0-1.641,1.343-2.984,2.984-2.984
					h42.185c1.641,0,2.984,1.343,2.984,2.984v0.571C738.644,726.792,737.301,728.135,735.66,728.135z"/>
				<path fill="#3E2723" d="M725.387,740.322h-21.046c-1.343,0-2.442-1.099-2.442-2.442v-0.467c0-1.343,1.099-2.442,2.442-2.442
					h21.046c1.343,0,2.442,1.099,2.442,2.442v0.467C727.829,739.223,726.73,740.322,725.387,740.322z"/>
			</g>
			<rect x="618.135" y="808.984" fill="none" width="187" height="68"/>
			<text transform="matrix(1 0 0 1 631.8406 822.2126)" fill="#3E2723" font-family="'Roboto-Light'" font-size="18">Exchange Year</text>
			<text transform="matrix(1 0 0 1 638.9233 843.8143)" fill="#3E2723" font-family="'Roboto-Regular'" font-size="18">Columbia, MD</text>
		</g>
	</g>
</g>
<g id="it">
	<g id="it-line">
		<polygon fill="#B1C482" points="519.609,579.656 491.482,563.417 519.609,547.177 		"/>
		<rect x="503.5" y="463.416" fill="#B1C482" width="17" height="200"/>
	</g>
	
		<text id="it-date" transform="matrix(1 0 0 1 558.6957 571.6646)" fill="#B1C482" font-family="'Roboto-Medium'" font-size="28.2251">2012 - 2013</text>
	<g id="it-badge">
		<circle id="it-circle" fill="#B1C482" cx="311.581" cy="563.416" r="130.5"/>
		<g id="it-title">
			<text transform="matrix(1 0 0 1 287.6801 482.4225)" fill="#FFFFFF" font-family="'Roboto-Bold'" font-size="35">HTL Villach</text>
		</g>
		<g id="it-details">
			<rect x="216.474" y="609.316" fill="none" width="187" height="68"/>
			<text transform="matrix(1 0 0 1 226.6855 622.5454)" fill="#EBF4CE" font-family="'ArialMT'" font-size="18">Media Engineering</text>
			<text transform="matrix(1 0 0 1 245.5317 644.1471)" fill="#EBF4CE" font-family="'ArialMT'" font-size="18">Network Engineering</text>
			<g id="it-icon">
				<g>
					<path fill="#C5EAEA" d="M289.117,572.358c-7.41-4.364-14.82-8.729-22.229-13.096c-4.238-2.491-8.476-4.987-12.713-7.483
						c-3.251-1.914-2.378-2.964-2.378-6.992c0-4.028-0.872-5.076,2.378-6.995c4.238-2.502,8.476-5.004,12.713-7.506
						c7.41-4.375,14.82-8.75,22.229-13.125c0,5.268,2.337,13.159-2.585,15.964c-6.823,3.889-13.646,7.776-20.469,11.664
						c6.484,3.668,12.968,7.337,19.452,11.005c2.426,1.372,3.602,1.264,3.602,4.002
						C289.117,563.983,289.117,568.171,289.117,572.358L289.117,572.358z"/>
					<path fill="#C5EAEA" d="M322.515,509.852c-3.695,14.128-7.396,28.258-11.096,42.385c-2.045,7.813-4.091,15.626-6.136,23.438
						c-1.417,5.411-7.584,2.955-12.645,2.955c3.723-14.127,7.447-28.254,11.17-42.381c2.059-7.813,4.118-15.626,6.177-23.438
						C311.406,507.419,317.463,509.852,322.515,509.852L322.515,509.852z"/>
					<path fill="#C5EAEA" d="M325.705,517.162c7.41,4.354,14.82,8.706,22.229,13.06c4.238,2.489,8.479,4.979,12.717,7.473
						c3.083,1.812,2.378,2.422,2.378,6.252c0,3.175,1.091,5.734-1.687,7.375c-4.002,2.359-8.005,4.727-12.008,7.09
						c-7.877,4.646-15.754,9.302-23.631,13.952c0-5.269-2.336-13.16,2.583-15.963c6.816-3.888,13.634-7.771,20.452-11.652
						c-6.479-3.672-12.957-7.344-19.438-11.016c-2.424-1.374-3.599-1.27-3.599-4.007
						C325.705,525.537,325.705,521.349,325.705,517.162L325.705,517.162z"/>
				</g>
				<g>
					<path fill="#D8EFEE" d="M263.18,540.693c3.488-2.453,7.213-4.396,11.053-6.573c3.574-2.025,6.571-4.487,10.172-5.979
						c0.282-1.014,0.618-1.981,1.028-2.898c0.002-1.027-0.104-2.147-0.357-3.396c-9.313,6.521-23.597,12.796-29.029,22.021
						c1.146-0.422,2.27-0.896,3.359-1.459C260.641,541.763,261.904,541.211,263.18,540.693z"/>
					<path fill="#D8EFEE" d="M297.19,576.608c1.562-0.972,2.794-2.034,3.74-4.275c1.004-2.382,1.871-4.866,2.675-7.343
						c1.916-5.901,2.993-12.075,4.829-18c1.9-6.132,3.223-12.047,4.358-18.409c0.896-5.016,2.386-9.813,3.716-14.676h-3.141
						c-0.424,0.224-0.813,0.501-1.146,0.847l-12.5,47.433c0.883,1.656,0.261,4.088-1.283,4.864l-2.45,9.298
						c0.297,0.037,0.597,0.086,0.899,0.166C296.99,576.54,297.088,576.577,297.19,576.608z"/>
					<path fill="#D8EFEE" d="M332.457,530.615c3.642,1.318,7.204,2.412,10.216,4.938c3.1,2.604,7.588,3.313,10.954,5.587
						c0.899,0.607,1.669,1.357,2.418,2.123c8.896-3.691-22.87-18.577-28.78-22.05c-0.201,1.688-0.139,3.137,0.133,4.416
						C328.845,527.604,330.126,529.771,332.457,530.615z"/>
				</g>
				<ellipse fill="#96A362" cx="305.248" cy="585.274" rx="28.333" ry="3.108"/>
				<path fill="#B0E2DE" d="M347.778,553.497c-3.488,2.453-7.213,4.396-11.057,6.573c-3.57,2.021-6.567,4.483-10.172,5.979
					c-0.278,1.018-0.618,1.985-1.024,2.902c-0.002,1.023,0.104,2.146,0.354,3.393c9.313-6.521,23.601-12.796,29.029-22.019
					c-1.146,0.422-2.271,0.892-3.359,1.459C350.317,552.427,349.054,552.979,347.778,553.497z"/>
				<path fill="#B0E2DE" d="M269.228,559.697c0.79,0.558,1.545,1.141,2.29,1.729c1.611,0.937,3.182,1.946,4.727,3.019
					c3.847,2.662,8.484,4.511,12.657,6.713c0.149-1.52,0.084-2.85-0.163-4.022c-1.45-1.972-2.732-4.138-5.063-4.979
					c-3.642-1.322-7.204-2.412-10.216-4.94c-3.096-2.6-7.588-3.313-10.954-5.587c-0.899-0.604-1.669-1.354-2.418-2.123
					c-1.312,0.545-1.733,1.335-1.49,2.295C262.021,554.607,265.591,557.13,269.228,559.697z"/>
			</g>
		</g>
	</g>
</g>
<g id="gym">
	<g id="gym-line">
		<rect x="503.5" y="263.416" fill="#EAB83D" width="17" height="200"/>
		<polygon fill="#EAB83D" points="503.5,379.655 531.627,363.416 503.5,347.176 		"/>
	</g>
	
		<text id="gym-date" transform="matrix(1 0 0 1 313.5809 371.6641)" fill="#EAB83D" font-family="'Roboto-Medium'" font-size="28.2251">2008 - 2012</text>
	<g id="gym-badge">
		<circle id="gym-circle" fill="#EAB83D" cx="712.667" cy="363.416" r="130.5"/>
		<g id="gym-title">
			<text transform="matrix(1 0 0 1 684.1306 282.4221)" fill="#FFFFFF" font-family="'Roboto-Bold'" font-size="35">Gymnasium</text>
		</g>
		<g id="gym-details">
			<g id="gym-icon">
				<g>
					<g>
						<path fill="#CC3300" d="M746.978,321.897h-67.354c-0.097,0-0.192,0.01-0.288,0.015v96.033
							c0.096,0.005,0.191,0.014,0.288,0.014h67.354c3.166,0,5.757-2.573,5.757-5.718v-84.626
							C752.735,324.47,750.145,321.897,746.978,321.897z"/>
						<path opacity="0.65" fill="#CC5333" enable-background="new    " d="M746.978,321.897h-67.354
							c-0.097,0-0.192,0.01-0.288,0.015v96.033c0.096,0.005,0.191,0.014,0.288,0.014h67.354c3.166,0,5.757-2.573,5.757-5.718
							v-84.626C752.735,324.47,750.145,321.897,746.978,321.897z"/>
						<g>
							<path fill="#FFFFFF" d="M751.016,400.351v-0.14h-71.307v0.012c-4.293,0.131-7.735,3.706-7.735,8.107
								c0,4.484,3.493,7.935,7.898,7.935c0.549,0,1.139,0.039,1.68,0.021h69.313c-3.638-0.755-5.086-4.029-5.086-7.955
								C745.779,404.35,747.304,401.046,751.016,400.351z"/>
							<g>
								<g>
									<defs>
										<path id="SVGID_3_" d="M751.016,400.351v-0.14h-71.307v0.012c-4.293,0.131-7.735,3.706-7.735,8.107
											c0,4.484,3.493,7.935,7.898,7.935c0.549,0,1.06,0.025,1.68,0.021h69.313c-3.638-0.755-5.086-4.029-5.086-7.955
											C745.779,404.35,747.304,401.046,751.016,400.351z"/>
									</defs>
									<clipPath id="SVGID_4_">
										<use xlink:href="#SVGID_3_"  overflow="visible"/>
									</clipPath>
									<g clip-path="url(#SVGID_4_)">
										<rect x="671.651" y="402.226" fill="#CCD4D3" width="80.036" height="0.779"/>
										<rect x="671.651" y="406.163" fill="#CCD4D3" width="80.036" height="0.779"/>
										<rect x="671.651" y="410.1" fill="#CCD4D3" width="80.036" height="0.779"/>
										<rect x="671.651" y="412.068" fill="#CCD4D3" width="80.036" height="0.779"/>
										<rect x="671.651" y="414.037" fill="#CCD4D3" width="80.036" height="0.779"/>
										<rect x="671.651" y="408.132" fill="#CCD4D3" width="80.036" height="0.779"/>
										<rect x="671.651" y="404.195" fill="#CCD4D3" width="80.036" height="0.779"/>
									</g>
								</g>
							</g>
						</g>
						<g>
							<path fill="#CC3300" d="M747.196,305.822h-67.354c-0.097,0-0.192,0.01-0.288,0.014v96.033
								c0.096,0.005,0.191,0.014,0.288,0.014h67.354c3.166,0,5.757-2.573,5.757-5.718V311.54
								C752.952,308.395,750.362,305.822,747.196,305.822z"/>
						</g>
						<path fill="#3E2723" d="M679.359,416.271c-0.065,0.002-0.206-0.039-0.271-0.041c-2.715-0.081-7.005-3.392-7.005-7.426
							s3.026-6.992,7.06-6.992c0.066,0,0.37,0.037,0.435,0.041l-0.24-79.942c0.072-0.004,0.145-0.008,0.217-0.011v-16.057
							c-0.137-0.006-0.273-0.021-0.412-0.021c-4.066,0-7.883,2.665-8.503,6.494c-0.138,0.854-0.15,2.782-0.137,3.459
							c0,0-0.184,92.955-0.184,93.342s0.033,0.764,0.081,1.138v0.247h0.038c0.666,4.214,4.304,7.44,8.705,7.44
							c0.066,0,0.129-0.008,0.195-0.01L679.359,416.271z"/>
					</g>
					<polygon fill="#FF0000" points="686.419,421.009 683.106,418.402 679.793,421.009 679.793,414.601 679.793,408.193 
						683.106,408.193 686.419,408.193 686.419,414.601 					"/>
					<path opacity="0.35" fill="#CC5333" enable-background="new    " d="M715.201,305.822h-35.36c-0.097,0-0.192,0.01-0.288,0.015
						v96.033c0.096,0.005,0.191,0.015,0.288,0.015h35.36V305.822z"/>
				</g>
				<path fill="#3E2723" d="M735.66,328.467h-42.185c-1.641,0-2.984-1.343-2.984-2.984v-0.571c0-1.641,1.343-2.984,2.984-2.984
					h42.185c1.641,0,2.984,1.343,2.984,2.984v0.571C738.644,327.124,737.301,328.467,735.66,328.467z"/>
				<path fill="#3E2723" d="M725.387,340.654h-21.046c-1.343,0-2.442-1.099-2.442-2.442v-0.467c0-1.343,1.099-2.442,2.442-2.442
					h21.046c1.343,0,2.442,1.099,2.442,2.442v0.467C727.829,339.555,726.73,340.654,725.387,340.654z"/>
			</g>
			<rect x="618.135" y="409.316" fill="none" width="187" height="68"/>
			<text transform="matrix(1 0 0 1 631.8405 422.545)" fill="#3E2723" font-family="'Roboto-Light'" font-size="18">BG/BRG</text>
			<text transform="matrix(1 0 0 1 697.7675 422.545)" fill="#3E2723" font-family="'Roboto-Regular'" font-size="18"> </text>
			<text transform="matrix(1 0 0 1 702.2405 422.545)" fill="#3E2723" font-family="'Roboto-Black'" font-size="18">Perau</text>
			<text transform="matrix(1 0 0 1 638.9232 444.1467)" fill="#3E2723" font-family="'Roboto-Regular'" font-size="18">VILLACH</text>
		</g>
	</g>
</g>
<g id="vs">
	<g id="vs-line">
		<rect x="503.5" y="63.416" fill="#D1652F" width="17" height="200"/>
		<polygon fill="#D1652F" points="520.5,179.655 492.373,163.416 520.5,147.176 		"/>
	</g>
	
		<text id="vs-date" transform="matrix(1 0 0 1 560.0004 171.6638)" fill="#D1652F" font-family="'Roboto-Medium'" font-size="28.2251">2004 - 2008</text>
	<g id="vs-badge">
		<circle id="vs-circle" fill="#D1652F" cx="311.581" cy="163.416" r="130.5"/>
		<g id="vs-title">
			<text transform="matrix(1 0 0 1 284.416 82.4214)" fill="#FFFFFF" font-family="'Roboto-Bold'" font-size="35">Volkschule</text>
		</g>
		<g id="vs-details">
			<g id="vs-icon">
				<path fill="#FFD8C5" d="M296.757,203.813c-0.373-0.494-0.563-0.991-0.665-1.442c1.281-0.233,2.297-0.314,2.297-0.314
					l1.509-17.233l7.539-0.04c0,0-1.465,13.726-2.897,19.684C302.397,204.682,297.658,205.004,296.757,203.813z"/>
				<path fill="#FFD8C5" d="M323.908,204.574c-0.6-0.162-1.051-0.43-1.411-0.724c0.866-0.972,1.614-1.664,1.614-1.664l-9.427-14.504
					l5.916-4.674c0,0,7.297,11.709,9.843,17.287C328.886,201.782,325.354,204.96,323.908,204.574z"/>
				<path fill="#FFD8C5" d="M298.342,155.1l-15.281,2.791c0,0,1.937,4.923,0.278,4.229c-1.66-0.695-2.045-2.091-2.045-2.091
					s-2.097,4.541-3.463,3.073c-1.364-1.467,0.93-3.95,0.93-3.95s-3.606,2.317-4.547,0.616c-0.937-1.702,2.167-3.023,2.167-3.023
					s-2.92,0.443-2.991-1.291c-0.069-1.74,2.676-1.086,2.676-1.086s-0.504-1.722,0.21-2.947c0.656-1.133,2.328-0.078,3.654,1.247
					c0.11,0.109,0.219,0.22,0.321,0.333c1.367,1.471,13.417-4.563,13.417-4.563L298.342,155.1z"/>
				<path fill="#A6CDEC" d="M308.849,144.211l-18.777,4.323l3.573,8.054l5.545-1.678l-0.442,20.002l27.066-8.119l-1.261-13.652
					l6.074,3.377l2.342-8.297C332.968,148.22,314.253,143.535,308.849,144.211z"/>
				<path fill="#FFD8C5" d="M307.98,139.907l-0.266,6.319c0,0,1.043,2.813,4.145,2.63c3.1-0.184,4.415-2.256,4.415-2.256
					l-0.51-6.632L307.98,139.907z"/>
				<path fill="#386A93" d="M298.986,158.558l-1.484,36.245l10.431,0.996l3.798-13.714l8.451,14.81l7.477-3.092
					c0,0-0.982-18.211-1.057-20.978c-0.073-2.766-1.232-13.853-1.232-13.853L298.986,158.558z"/>
				<path fill="#BFA4AC" d="M319.15,145.75c0,0-0.726,0.818-1.019,3.635c-0.291,2.818,0.324,10.867,0.324,10.867l3.031,0.222
					c0,0,0.612-13.904,0.195-14.574C321.264,145.228,319.908,145.447,319.15,145.75z"/>
				<path fill="#BFA4AC" d="M302.3,145.033c0,0-0.724,0.818-1.017,3.636c-0.292,2.818,0.321,10.867,0.321,10.867l3.034,0.221
					c0,0,0.613-13.905,0.195-14.574C304.416,144.511,303.058,144.73,302.3,145.033z"/>
				<path fill="#5A3D1B" d="M290.052,116.792c0,0,0.511-15.615,14.476-24.189c11.278-6.918,23.7-0.449,33.894,7.814
					c0,0,8.073-0.201,6.585,15.524c-1.486,15.721-8.804,17.768-8.804,17.768s-27.333-11.703-28.231-11.964
					C307.073,121.482,290.608,123.864,290.052,116.792z"/>
				<path fill="#FFD8C5" d="M321.813,102.869c-7.035-0.784-24.987-3.118-30.901,13.298c0,0-4.187-1.323-4.654,1.948
					c-0.472,3.266,4.274,3.681,4.274,3.681s-1.454,16.609,19.78,23.216c21.231,6.607,25.737-7.457,25.737-7.457
					s5.109,2.177,6.74-1.726c1.629-3.906-3.728-4.891-3.728-4.891S346.999,105.679,321.813,102.869z"/>
				<path fill="#F99DA4" d="M301.846,129.174c-0.409,1.164-2.046,1.787-3.654,1.381c-1.615-0.401-2.592-1.678-2.182-2.846
					c0.409-1.175,2.047-1.796,3.657-1.387C301.277,126.727,302.256,128.003,301.846,129.174z"/>
				<path fill="#F99DA4" d="M333.395,136.211c-0.409,1.169-2.047,1.791-3.657,1.383c-1.612-0.4-2.586-1.678-2.18-2.848
					c0.411-1.174,2.049-1.794,3.66-1.387C332.825,133.766,333.802,135.041,333.395,136.211z"/>
				<path fill="#DDB59F" d="M315.787,131.401c0,0,0.154,1.017-0.585,1.31c-0.737,0.297,0.886,0.822,1.216-0.128
					C316.752,131.636,316.498,131.3,315.787,131.401z"/>
				<path fill="#5A3D1B" d="M290.912,116.168c0,0,11.252-4.184,14.34-10.951c0,0,0.915,11.001,6.46,14.073
					c0,0-1.32-3.709-0.468-5.426c0,0,5.261,8.392,12.928,10.533c0,0-3.533-4.321-2.944-7.455c0,0,3.932,8.054,12.69,10.039
					c0,0-1.576-2.976-1.6-3.898c0,0,6.128,4.74,6.741,7.859c0,0,6.479-12.6,1.05-19.79c-5.43-7.191-21.841-13.614-27.374-13.467
					C307.201,97.831,289.978,106.78,290.912,116.168z"/>
				<circle fill="#FFFFFF" cx="302.941" cy="160.948" r="1.314"/>
				<circle fill="#FFFFFF" cx="319.615" cy="160.722" r="1.315"/>
				<path fill="#BFA4AC" d="M304.753,165.288c0.517-0.095,16.311-0.077,16.311-0.077s-4.57,6.256-9.704,5.705
					C306.229,170.37,304.753,165.288,304.753,165.288z"/>
				<polygon fill="#56B1D1" points="297.162,190.671 296.862,195.019 308.649,196.154 309.207,192.148 				"/>
				<polygon fill="#56B1D1" points="317.693,193.536 319.836,197.203 328.775,193.141 327.26,189.356 				"/>
				<g>
					<g>
						<path d="M323.856,131.733c-0.804,0.099-1.537-0.473-1.634-1.277c-0.102-0.805,0.475-1.537,1.277-1.636
							c0.807-0.099,1.537,0.473,1.636,1.279C325.233,130.901,324.66,131.636,323.856,131.733z"/>
					</g>
					<circle fill="#FFFFFF" cx="323.808" cy="130.591" r="0.258"/>
				</g>
				<g>
					<g>
						<circle cx="306.33" cy="124.949" r="1.467"/>
					</g>
					<circle fill="#FFFFFF" cx="306.46" cy="125.26" r="0.258"/>
				</g>
				<path fill="#FFD8C5" d="M329.75,155.29l12.218,4.181c0,0-2.373,4.729-0.655,4.187c1.712-0.543,2.218-1.899,2.218-1.899
					s1.687,4.713,3.178,3.373c1.489-1.34-0.57-4.019-0.57-4.019s3.381,2.632,4.468,1.021c1.084-1.609-1.882-3.205-1.882-3.205
					s2.864,0.704,3.094-1.019c0.224-1.724-2.567-1.321-2.567-1.321s0.655-1.669,0.057-2.953c-0.556-1.186-2.315-0.285-3.756,0.913
					c-0.119,0.097-0.237,0.202-0.349,0.305c-1.49,1.336-12.876-6.315-12.876-6.315L329.75,155.29z"/>
				<path fill="#D84853" d="M308.495,134.198c0,0,2.264,5.613,10.919,3.894C319.414,138.092,310.384,144.572,308.495,134.198z"/>
			</g>
			<text transform="matrix(1 0 0 1 219.7134 222.5444)" fill="#E8AD67" font-family="'Roboto-Regular'" font-size="18">Montessori VS </text>
			<text transform="matrix(1 0 0 1 343.0414 222.5444)" fill="#E8AD67" font-family="'Roboto-Bold'" font-size="18">St. Andrae</text>
			<text id="villach" transform="matrix(1 0 0 1 249.6372 244.146)" fill="#E8AD67" font-family="'Roboto-Bold'" font-size="18">VILLACH</text>
		</g>
	</g>
</g>
</svg>
