<?xml version="1.0" encoding="utf-8"?>
<!-- Generator: Adobe Illustrator 17.0.0, SVG Export Plug-In . SVG Version: 6.00 Build 0)  -->
<!DOCTYPE svg PUBLIC "-//W3C//DTD SVG 1.1//EN" "http://www.w3.org/Graphics/SVG/1.1/DTD/svg11.dtd">
<svg version="1.1" id="InteractiveSVG" xmlns="http://www.w3.org/2000/svg" xmlns:xlink="http://www.w3.org/1999/xlink" x="0px"
	 y="0px" width="1024px" height="1388px" viewBox="0 0 1024 1388" enable-background="new 0 0 1024 1388" xml:space="preserve">
<g id="htl">
	<g id="htl-line">
		<polygon fill="#AA8C65" points="519.609,979.219 491.482,962.98 519.609,946.74 		"/>
		<rect x="503.5" y="862.98" fill="#AA8C65" width="17" height="200"/>
	</g>
	
		<text id="htl-date" transform="matrix(1 0 0 1 558.6957 971.2284)" fill="#AA8C65" font-family="'Roboto-Medium'" font-size="28.2251">2014 - TODAY</text>
	<g id="htl-badge">
		<circle id="htl-circle" fill="#AA8C65" cx="311.581" cy="962.98" r="130.5"/>
		<g id="htl-title">
			<text transform="matrix(1 0 0 1 287.6801 881.9863)" fill="#FFFFFF" font-family="'Roboto-Bold'" font-size="35">HTL Villach</text>
		</g>
		<g id="htl-details">
			<rect x="216.474" y="1008.88" fill="none" width="187" height="68"/>
			<text transform="matrix(1 0 0 1 226.6855 1022.1093)" fill="#EBF4CE" font-family="'ArialMT'" font-size="18">Media Engineering</text>
			<g id="htl-icon">
				<rect x="249.073" y="920.785" fill="#414042" width="125.015" height="72.242"/>
				<circle fill="#D1D3D4" cx="325.947" cy="956.905" r="31.277"/>
				<rect x="249.073" y="920.785" fill="#D1D3D4" width="125.015" height="13.681"/>
				<rect x="249.073" y="979.346" fill="#D1D3D4" width="125.015" height="13.681"/>
				<circle fill="#22363F" cx="325.947" cy="956.905" r="26.654"/>
				<circle fill="#4E7387" stroke="#578CA3" stroke-width="5" stroke-miterlimit="10" cx="325.947" cy="956.905" r="19.257"/>
				<circle fill="#204856" cx="325.947" cy="956.905" r="10.464"/>
				<circle fill="#092830" cx="325.947" cy="956.905" r="6.612"/>
				<path fill="#D1D3D4" d="M349.694,926.9c0,1.277-1.075,2.312-2.4,2.312h-41.282c-1.325,0-2.4-1.035-2.4-2.312v-15.974
					c0-1.276,1.074-2.312,2.4-2.312h41.282c1.325,0,2.4,1.035,2.4,2.312V926.9z"/>
				<circle opacity="0.6" fill="#FFFFFF" cx="313.739" cy="944.588" r="6.497"/>
				<circle opacity="0.6" fill="#FFFFFF" cx="319.913" cy="952.725" r="2.067"/>
				<path fill="#4E7387" d="M346.016,920.134c0,1.276-1.035,2.311-2.312,2.311h-19.413c-1.276,0-2.312-1.035-2.312-2.311v-6.935
					c0-1.277,1.036-2.312,2.312-2.312h19.413c1.277,0,2.312,1.035,2.312,2.312V920.134z"/>
				<path fill="#22363F" d="M317.846,915.357c0,1.276-1.035,2.311-2.312,2.311h-4.063c-1.277,0-2.312-1.035-2.312-2.311v-1.233
					c0-1.277,1.035-2.312,2.312-2.312h4.063c1.277,0,2.312,1.035,2.312,2.312V915.357z"/>
				<circle fill="#BE1E2D" cx="315.483" cy="920.943" r="1.618"/>
				<rect x="259.946" y="916.666" fill="#939598" width="15.365" height="4.118"/>
				<rect x="364.021" y="920.785" opacity="0.3" fill="#939598" width="10.067" height="72.165"/>
				<rect x="249.073" y="920.785" opacity="0.3" fill="#939598" width="5.034" height="72.165"/>
			</g>
		</g>
	</g>
</g>
<g id="usa">
	<g id="usa-line">
		<rect x="503.5" y="663.084" fill="#88CDD8" width="17" height="200"/>
		<polygon fill="#88CDD8" points="503.5,779.323 531.627,763.084 503.5,746.844 		"/>
	</g>
	
		<text id="usa-date" transform="matrix(1 0 0 1 313.5811 771.3313)" fill="#88CDD8" font-family="'Roboto-Medium'" font-size="28.2251">2013 - 2014</text>
	<g id="usa-badge">
		<circle id="usa-circle" fill="#88CDD8" cx="712.667" cy="763.084" r="130.5"/>
		<g id="usa-title">
			<text transform="matrix(1 0 0 1 684.131 682.0897)" fill="#FFFFFF" font-family="'Roboto-Bold'" font-size="35">USA</text>
		</g>
		<g id="usa-details">
			<rect x="618.135" y="808.984" fill="none" width="187" height="68"/>
			<text transform="matrix(1 0 0 1 631.8406 822.2126)" fill="#3E2723" font-family="'Roboto-Light'" font-size="18">Exchange Year</text>
			<text transform="matrix(1 0 0 1 638.9232 843.8143)" fill="#3E2723" font-family="'Roboto-Regular'" font-size="18">Columbia, MD</text>
			<g id="usa-icon">
				<path fill="#FFFFFF" d="M783.957,780.772c-48.852-24.142-93.729,24.142-142.58,0c0-25.105,0-50.209,0-75.314
					c41.594,27.545,93.728-24.142,142.58,0C783.957,730.563,783.957,755.668,783.957,780.772z"/>
				<path fill="#D94C5A" d="M783.957,780.772c-48.852-24.142-93.729,24.142-142.58,0c0-2.949,0-4.423,0-7.372
					c48.852,24.142,93.728-24.142,142.58,0C783.957,776.349,783.957,777.824,783.957,780.772z"/>
				<path fill="#D94C5A" d="M783.957,765.3c-48.852-24.142-93.729,24.142-142.58,0c0-3.086,0-4.628,0-7.714
					c48.852,24.142,93.728-24.142,142.58,0C783.957,760.671,783.957,762.214,783.957,765.3z"/>
				<path fill="#D94C5A" d="M783.957,749.107c-48.852-24.142-93.728,24.142-142.58,0c0-3.231,0-4.847,0-8.079
					c48.852,24.142,93.728-24.142,142.58,0C783.957,744.26,783.957,745.875,783.957,749.107z"/>
				<path fill="#D94C5A" d="M783.957,732.142c-48.852-24.142-93.728,24.142-142.58,0c0-3.388,0-5.082,0-8.47
					c48.852,24.142,93.728-24.142,142.58,0C783.957,727.06,783.957,728.754,783.957,732.142z"/>
				<path fill="#D94C5A" d="M783.957,714.35c-48.852-24.142-93.728,24.142-142.58,0c0-3.557,0-5.335,0-8.892
					c47.432,26.709,92.367-24.589,142.58,0C783.957,709.015,783.957,710.794,783.957,714.35z"/>
				<path fill="#034C75" d="M700.229,752.929c-22.065,5.632-38.249,6.396-58.852-3.822c0-14.55,0-29.099,0-43.649
					c20.604,10.218,36.787,9.454,58.852,3.822C700.229,723.83,700.229,738.379,700.229,752.929z"/>
				<g>
					<g>
						<path fill="#FFFFFF" d="M651.337,716.701c0.191,0.66,0.286,0.989,0.477,1.647c0.616,0.232,0.924,0.342,1.541,0.552
							c-0.499,0.192-0.748,0.284-1.247,0.462c0.191,0.657,0.286,0.984,0.477,1.639c-0.499-0.541-0.748-0.815-1.247-1.37
							c-0.498,0.17-0.748,0.251-1.246,0.406c0.19-0.507,0.285-0.762,0.475-1.271c-0.498-0.563-0.747-0.849-1.246-1.427
							c0.616,0.267,0.924,0.395,1.541,0.64C651.052,717.469,651.147,717.214,651.337,716.701z"/>
						<path fill="#FFFFFF" d="M661.209,719.461c0.191,0.62,0.286,0.93,0.477,1.549c0.616,0.104,0.924,0.152,1.54,0.238
							c-0.499,0.292-0.748,0.435-1.246,0.715c0.19,0.617,0.286,0.926,0.476,1.542c-0.499-0.44-0.748-0.662-1.247-1.113
							c-0.498,0.273-0.747,0.407-1.246,0.669c0.19-0.548,0.285-0.822,0.475-1.372c-0.499-0.458-0.748-0.691-1.246-1.161
							c0.616,0.134,0.925,0.197,1.541,0.313C660.924,720.289,661.019,720.013,661.209,719.461z"/>
						<path fill="#FFFFFF" d="M671.082,720.344c0.19,0.588,0.286,0.881,0.476,1.467c0.616,0,0.924-0.004,1.54-0.019
							c-0.498,0.374-0.747,0.559-1.246,0.923c0.19,0.585,0.285,0.878,0.475,1.462c-0.498-0.356-0.747-0.536-1.246-0.902
							c-0.499,0.359-0.748,0.536-1.247,0.885c0.191-0.581,0.286-0.872,0.477-1.455c-0.499-0.371-0.748-0.559-1.247-0.941
							c0.616,0.024,0.925,0.032,1.541,0.041C670.796,721.221,670.891,720.929,671.082,720.344z"/>
						<path fill="#FFFFFF" d="M680.953,719.711c0.19,0.562,0.286,0.842,0.476,1.403c0.616-0.083,0.925-0.127,1.541-0.221
							c-0.499,0.438-0.749,0.655-1.248,1.086c0.191,0.56,0.286,0.84,0.477,1.399c-0.498-0.291-0.748-0.438-1.246-0.736
							c-0.498,0.427-0.748,0.638-1.246,1.057c0.19-0.608,0.285-0.912,0.475-1.521c-0.498-0.302-0.747-0.456-1.246-0.766
							c0.616-0.064,0.925-0.099,1.541-0.175C680.668,720.627,680.763,720.322,680.953,719.711z"/>
						<path fill="#FFFFFF" d="M690.825,717.922c0.191,0.543,0.286,0.814,0.477,1.356c0.616-0.143,0.924-0.216,1.54-0.366
							c-0.499,0.483-0.748,0.724-1.247,1.203c0.191,0.542,0.286,0.812,0.477,1.353c-0.499-0.244-0.748-0.367-1.247-0.616
							c-0.498,0.476-0.747,0.712-1.245,1.183c0.19-0.628,0.285-0.942,0.475-1.57c-0.498-0.252-0.747-0.379-1.246-0.636
							c0.616-0.13,0.924-0.197,1.54-0.334C690.539,718.866,690.635,718.551,690.825,717.922z"/>
						<path fill="#FFFFFF" d="M646.288,710.104c0.19,0.682,0.286,1.023,0.476,1.704c0.616,0.305,0.924,0.452,1.541,0.734
							c-0.499,0.134-0.748,0.197-1.246,0.316c0.19,0.679,0.286,1.019,0.476,1.696c-0.498-0.6-0.748-0.904-1.246-1.519
							c-0.499,0.109-0.748,0.16-1.246,0.254c0.19-0.484,0.285-0.726,0.476-1.212c-0.498-0.625-0.748-0.941-1.246-1.581
							c0.616,0.344,0.924,0.51,1.541,0.83C646.002,710.837,646.097,710.593,646.288,710.104z"/>
						<path fill="#FFFFFF" d="M656.112,713.949c0.19,0.64,0.286,0.959,0.477,1.596c0.616,0.167,0.925,0.246,1.541,0.394
							c-0.499,0.243-0.748,0.361-1.247,0.591c0.191,0.637,0.286,0.955,0.477,1.59c-0.499-0.49-0.748-0.738-1.247-1.24
							c-0.498,0.222-0.747,0.33-1.246,0.539c0.19-0.528,0.285-0.792,0.475-1.322c-0.498-0.511-0.748-0.769-1.246-1.293
							c0.616,0.2,0.925,0.295,1.541,0.475C655.826,714.747,655.922,714.481,656.112,713.949z"/>
						<path fill="#FFFFFF" d="M665.936,715.752c0.191,0.603,0.286,0.905,0.477,1.506c0.616,0.051,0.924,0.073,1.54,0.108
							c-0.498,0.334-0.747,0.498-1.246,0.821c0.19,0.601,0.285,0.901,0.476,1.501c-0.499-0.397-0.748-0.598-1.246-1.007
							c-0.498,0.317-0.747,0.472-1.246,0.778c0.19-0.565,0.285-0.847,0.475-1.414c-0.498-0.415-0.747-0.625-1.246-1.05
							c0.616,0.079,0.924,0.114,1.54,0.175C665.651,716.604,665.746,716.32,665.936,715.752z"/>
						<path fill="#FFFFFF" d="M675.761,715.867c0.19,0.574,0.286,0.861,0.476,1.434c0.616-0.042,0.924-0.067,1.54-0.122
							c-0.498,0.407-0.747,0.608-1.246,1.006c0.19,0.573,0.286,0.858,0.476,1.43c-0.499-0.323-0.748-0.486-1.247-0.818
							c-0.499,0.393-0.748,0.588-1.246,0.972c0.19-0.595,0.286-0.892,0.476-1.489c-0.499-0.337-0.748-0.507-1.246-0.852
							c0.616-0.021,0.924-0.034,1.54-0.069C675.475,716.763,675.571,716.465,675.761,715.867z"/>
						<path fill="#FFFFFF" d="M685.586,714.65c0.19,0.552,0.285,0.827,0.475,1.378c0.616-0.114,0.925-0.173,1.541-0.296
							c-0.498,0.461-0.747,0.691-1.245,1.146c0.19,0.551,0.285,0.826,0.475,1.376c-0.498-0.267-0.747-0.401-1.246-0.674
							c-0.499,0.452-0.748,0.676-1.247,1.122c0.191-0.618,0.286-0.927,0.477-1.547c-0.499-0.276-0.748-0.416-1.247-0.699
							c0.616-0.098,0.924-0.149,1.541-0.257C685.3,715.58,685.395,715.27,685.586,714.65z"/>
						<path fill="#FFFFFF" d="M695.41,712.454c0.19,0.536,0.286,0.804,0.476,1.34c0.616-0.163,0.924-0.246,1.541-0.414
							c-0.499,0.499-0.748,0.747-1.247,1.242c0.19,0.536,0.286,0.803,0.476,1.338c-0.499-0.228-0.748-0.343-1.246-0.575
							c-0.499,0.493-0.748,0.738-1.246,1.226c0.19-0.634,0.286-0.952,0.476-1.587c-0.498-0.234-0.748-0.353-1.246-0.591
							c0.616-0.153,0.925-0.231,1.541-0.39C695.124,713.407,695.219,713.09,695.41,712.454z"/>
					</g>
					<g>
						<path fill="#FFFFFF" d="M651.337,724.959c0.191,0.659,0.286,0.989,0.477,1.646c0.616,0.232,0.924,0.342,1.541,0.552
							c-0.499,0.192-0.748,0.285-1.247,0.464c0.191,0.656,0.286,0.984,0.477,1.638c-0.499-0.541-0.748-0.815-1.247-1.369
							c-0.498,0.169-0.748,0.25-1.246,0.405c0.19-0.507,0.285-0.761,0.475-1.269c-0.498-0.564-0.747-0.85-1.246-1.428
							c0.616,0.267,0.924,0.395,1.541,0.64C651.052,725.727,651.147,725.471,651.337,724.959z"/>
						<path fill="#FFFFFF" d="M661.209,727.719c0.191,0.62,0.286,0.929,0.477,1.547c0.616,0.104,0.924,0.152,1.54,0.238
							c-0.499,0.293-0.748,0.436-1.246,0.717c0.19,0.617,0.286,0.925,0.476,1.54c-0.499-0.439-0.748-0.662-1.247-1.113
							c-0.498,0.273-0.747,0.407-1.246,0.668c0.19-0.547,0.285-0.821,0.475-1.37c-0.499-0.459-0.748-0.691-1.246-1.163
							c0.616,0.134,0.925,0.197,1.541,0.312C660.924,728.546,661.019,728.271,661.209,727.719z"/>
						<path fill="#FFFFFF" d="M671.082,728.602c0.19,0.587,0.286,0.88,0.476,1.466c0.616,0,0.924-0.004,1.54-0.019
							c-0.498,0.375-0.747,0.559-1.246,0.925c0.19,0.585,0.285,0.877,0.475,1.46c-0.498-0.356-0.747-0.536-1.246-0.901
							c-0.499,0.359-0.748,0.536-1.247,0.885c0.191-0.581,0.286-0.871,0.477-1.454c-0.499-0.372-0.748-0.56-1.247-0.942
							c0.616,0.024,0.925,0.032,1.541,0.041C670.796,729.479,670.891,729.187,671.082,728.602z"/>
						<path fill="#FFFFFF" d="M680.953,727.969c0.19,0.561,0.286,0.842,0.476,1.402c0.616-0.083,0.925-0.127,1.541-0.221
							c-0.499,0.438-0.749,0.656-1.248,1.087c0.191,0.559,0.286,0.839,0.477,1.397c-0.499-0.29-0.748-0.438-1.247-0.735
							c-0.498,0.426-0.748,0.637-1.246,1.056c0.19-0.607,0.285-0.911,0.475-1.52c-0.498-0.303-0.747-0.456-1.246-0.767
							c0.617-0.064,0.925-0.099,1.541-0.175C680.668,728.884,680.763,728.58,680.953,727.969z"/>
						<path fill="#FFFFFF" d="M690.825,726.18c0.191,0.542,0.286,0.813,0.477,1.355c0.616-0.143,0.924-0.216,1.54-0.366
							c-0.499,0.484-0.748,0.725-1.247,1.204c0.191,0.541,0.286,0.812,0.477,1.352c-0.499-0.244-0.748-0.366-1.247-0.615
							c-0.498,0.475-0.747,0.712-1.245,1.182c0.19-0.627,0.285-0.941,0.475-1.569c-0.498-0.252-0.747-0.38-1.246-0.637
							c0.616-0.13,0.924-0.197,1.54-0.335C690.539,727.123,690.635,726.809,690.825,726.18z"/>
						<path fill="#FFFFFF" d="M646.288,718.361c0.19,0.683,0.286,1.024,0.476,1.704c0.616,0.305,0.924,0.452,1.541,0.734
							c-0.499,0.134-0.748,0.197-1.247,0.316c0.19,0.679,0.286,1.018,0.476,1.695c-0.498-0.6-0.748-0.903-1.246-1.519
							c-0.499,0.109-0.748,0.16-1.246,0.254c0.19-0.483,0.285-0.726,0.476-1.211c-0.498-0.625-0.748-0.941-1.246-1.581
							c0.616,0.344,0.924,0.51,1.541,0.83C646.002,719.095,646.097,718.851,646.288,718.361z"/>
						<path fill="#FFFFFF" d="M656.112,722.206c0.19,0.64,0.286,0.959,0.477,1.597c0.616,0.167,0.925,0.246,1.541,0.394
							c-0.499,0.243-0.748,0.361-1.247,0.591c0.191,0.637,0.286,0.954,0.477,1.589c-0.499-0.49-0.748-0.738-1.247-1.24
							c-0.498,0.222-0.747,0.33-1.246,0.538c0.19-0.527,0.285-0.792,0.475-1.321c-0.498-0.511-0.748-0.769-1.246-1.293
							c0.616,0.2,0.925,0.295,1.541,0.475C655.826,723.005,655.922,722.739,656.112,722.206z"/>
						<path fill="#FFFFFF" d="M665.936,724.009c0.191,0.604,0.286,0.905,0.477,1.507c0.616,0.051,0.924,0.073,1.54,0.108
							c-0.498,0.334-0.747,0.498-1.246,0.821c0.19,0.601,0.285,0.901,0.476,1.5c-0.499-0.397-0.748-0.598-1.246-1.006
							c-0.498,0.316-0.747,0.472-1.246,0.778c0.19-0.564,0.285-0.847,0.475-1.413c-0.498-0.414-0.747-0.625-1.245-1.05
							c0.616,0.079,0.924,0.114,1.54,0.175C665.651,724.862,665.746,724.578,665.936,724.009z"/>
						<path fill="#FFFFFF" d="M675.761,724.125c0.19,0.574,0.286,0.861,0.476,1.434c0.616-0.042,0.924-0.067,1.54-0.122
							c-0.498,0.407-0.747,0.608-1.246,1.006c0.19,0.572,0.286,0.858,0.476,1.429c-0.499-0.323-0.748-0.486-1.247-0.817
							c-0.499,0.393-0.748,0.588-1.246,0.972c0.19-0.594,0.286-0.892,0.476-1.488c-0.499-0.337-0.748-0.507-1.247-0.852
							c0.616-0.021,0.924-0.034,1.54-0.069C675.475,725.021,675.571,724.723,675.761,724.125z"/>
						<path fill="#FFFFFF" d="M685.586,722.907c0.19,0.552,0.285,0.828,0.475,1.379c0.616-0.114,0.925-0.173,1.541-0.296
							c-0.498,0.462-0.747,0.691-1.245,1.146c0.19,0.55,0.285,0.825,0.475,1.375c-0.498-0.266-0.747-0.401-1.246-0.674
							c-0.499,0.452-0.748,0.676-1.247,1.122c0.191-0.618,0.286-0.927,0.477-1.546c-0.499-0.276-0.748-0.416-1.247-0.699
							c0.616-0.098,0.924-0.149,1.541-0.257C685.3,723.837,685.395,723.527,685.586,722.907z"/>
						<path fill="#FFFFFF" d="M695.41,720.711c0.19,0.536,0.286,0.804,0.476,1.34c0.616-0.163,0.924-0.246,1.541-0.414
							c-0.499,0.499-0.748,0.747-1.247,1.242c0.19,0.535,0.286,0.803,0.476,1.338c-0.499-0.228-0.748-0.343-1.246-0.575
							c-0.499,0.492-0.748,0.738-1.246,1.226c0.19-0.634,0.286-0.951,0.476-1.586c-0.499-0.235-0.748-0.353-1.246-0.592
							c0.616-0.153,0.925-0.231,1.541-0.39C695.124,721.665,695.219,721.347,695.41,720.711z"/>
					</g>
					<g>
						<path fill="#FFFFFF" d="M651.337,733.795c0.191,0.659,0.286,0.989,0.477,1.646c0.616,0.232,0.924,0.342,1.541,0.552
							c-0.499,0.192-0.748,0.285-1.247,0.464c0.191,0.656,0.286,0.984,0.477,1.638c-0.499-0.541-0.748-0.815-1.247-1.37
							c-0.498,0.169-0.747,0.25-1.246,0.406c0.19-0.507,0.285-0.761,0.475-1.27c-0.498-0.564-0.747-0.85-1.246-1.428
							c0.616,0.267,0.924,0.395,1.541,0.64C651.052,734.563,651.147,734.307,651.337,733.795z"/>
						<path fill="#FFFFFF" d="M661.209,736.555c0.191,0.62,0.286,0.929,0.477,1.547c0.616,0.104,0.924,0.152,1.54,0.238
							c-0.499,0.292-0.748,0.436-1.246,0.717c0.19,0.617,0.286,0.925,0.476,1.541c-0.499-0.439-0.748-0.662-1.247-1.113
							c-0.498,0.273-0.747,0.407-1.246,0.668c0.19-0.547,0.285-0.822,0.475-1.371c-0.499-0.459-0.748-0.691-1.246-1.163
							c0.616,0.134,0.925,0.197,1.541,0.312C660.924,737.382,661.019,737.107,661.209,736.555z"/>
						<path fill="#FFFFFF" d="M671.082,737.438c0.19,0.587,0.286,0.88,0.476,1.466c0.616,0,0.924-0.004,1.54-0.019
							c-0.498,0.375-0.747,0.56-1.246,0.925c0.19,0.585,0.285,0.877,0.475,1.461c-0.498-0.356-0.747-0.536-1.246-0.902
							c-0.499,0.359-0.748,0.536-1.247,0.885c0.191-0.581,0.286-0.872,0.477-1.454c-0.499-0.372-0.748-0.56-1.247-0.942
							c0.616,0.024,0.925,0.032,1.541,0.041C670.796,738.315,670.891,738.023,671.082,737.438z"/>
						<path fill="#FFFFFF" d="M680.953,736.805c0.19,0.561,0.286,0.842,0.476,1.402c0.616-0.083,0.925-0.127,1.541-0.221
							c-0.499,0.438-0.749,0.656-1.248,1.087c0.191,0.56,0.286,0.839,0.477,1.398c-0.499-0.291-0.748-0.438-1.247-0.736
							c-0.498,0.426-0.748,0.638-1.246,1.056c0.19-0.608,0.285-0.912,0.475-1.52c-0.498-0.303-0.747-0.456-1.246-0.767
							c0.616-0.064,0.925-0.099,1.541-0.175C680.668,737.72,680.763,737.416,680.953,736.805z"/>
						<path fill="#FFFFFF" d="M690.825,735.016c0.191,0.542,0.286,0.813,0.477,1.355c0.616-0.143,0.924-0.216,1.54-0.366
							c-0.499,0.484-0.748,0.725-1.247,1.204c0.191,0.541,0.286,0.812,0.477,1.353c-0.499-0.244-0.748-0.367-1.247-0.615
							c-0.498,0.475-0.747,0.712-1.245,1.182c0.19-0.627,0.285-0.941,0.475-1.569c-0.498-0.252-0.747-0.38-1.246-0.637
							c0.616-0.13,0.924-0.197,1.54-0.334C690.539,735.959,690.635,735.645,690.825,735.016z"/>
						<path fill="#FFFFFF" d="M646.288,727.197c0.19,0.683,0.286,1.024,0.476,1.705c0.616,0.305,0.924,0.452,1.541,0.735
							c-0.499,0.134-0.748,0.197-1.247,0.315c0.19,0.679,0.286,1.018,0.476,1.696c-0.499-0.6-0.748-0.904-1.246-1.519
							c-0.499,0.109-0.748,0.16-1.246,0.254c0.19-0.484,0.285-0.726,0.476-1.212c-0.498-0.625-0.748-0.941-1.246-1.581
							c0.616,0.344,0.924,0.51,1.541,0.83C646.002,727.931,646.097,727.687,646.288,727.197z"/>
						<path fill="#FFFFFF" d="M656.112,731.042c0.19,0.64,0.286,0.959,0.477,1.598c0.616,0.167,0.925,0.246,1.541,0.394
							c-0.499,0.242-0.748,0.361-1.247,0.59c0.191,0.637,0.286,0.955,0.477,1.59c-0.499-0.49-0.748-0.738-1.247-1.241
							c-0.498,0.222-0.747,0.33-1.246,0.539c0.19-0.528,0.285-0.792,0.475-1.322c-0.498-0.51-0.748-0.769-1.246-1.293
							c0.616,0.2,0.925,0.295,1.541,0.475C655.826,731.841,655.922,731.575,656.112,731.042z"/>
						<path fill="#FFFFFF" d="M665.936,732.845c0.191,0.604,0.286,0.905,0.477,1.507c0.616,0.051,0.924,0.073,1.54,0.108
							c-0.498,0.333-0.748,0.498-1.246,0.821c0.19,0.601,0.285,0.901,0.476,1.501c-0.499-0.397-0.748-0.599-1.246-1.007
							c-0.498,0.317-0.747,0.472-1.246,0.778c0.19-0.565,0.285-0.847,0.475-1.414c-0.498-0.414-0.747-0.624-1.245-1.05
							c0.616,0.079,0.924,0.114,1.54,0.175C665.651,733.698,665.746,733.414,665.936,732.845z"/>
						<path fill="#FFFFFF" d="M675.761,732.961c0.19,0.574,0.286,0.861,0.476,1.435c0.616-0.042,0.924-0.067,1.54-0.122
							c-0.498,0.406-0.747,0.608-1.246,1.006c0.19,0.573,0.286,0.858,0.476,1.43c-0.499-0.323-0.748-0.486-1.246-0.818
							c-0.499,0.393-0.748,0.588-1.246,0.972c0.19-0.595,0.286-0.893,0.476-1.489c-0.499-0.336-0.748-0.507-1.247-0.852
							c0.616-0.021,0.924-0.034,1.54-0.069C675.475,733.857,675.571,733.559,675.761,732.961z"/>
						<path fill="#FFFFFF" d="M685.586,731.743c0.19,0.552,0.285,0.828,0.475,1.379c0.616-0.114,0.925-0.173,1.541-0.296
							c-0.498,0.461-0.747,0.69-1.245,1.146c0.19,0.551,0.285,0.826,0.475,1.376c-0.498-0.267-0.747-0.401-1.246-0.674
							c-0.499,0.452-0.748,0.676-1.247,1.122c0.191-0.618,0.286-0.927,0.477-1.546c-0.499-0.276-0.748-0.416-1.247-0.699
							c0.616-0.098,0.924-0.149,1.541-0.257C685.3,732.674,685.395,732.364,685.586,731.743z"/>
						<path fill="#FFFFFF" d="M695.41,729.547c0.19,0.537,0.286,0.805,0.476,1.341c0.616-0.163,0.924-0.246,1.541-0.414
							c-0.499,0.498-0.748,0.747-1.247,1.241c0.19,0.536,0.286,0.803,0.476,1.338c-0.499-0.228-0.748-0.343-1.246-0.575
							c-0.499,0.493-0.748,0.738-1.246,1.226c0.19-0.634,0.286-0.952,0.476-1.587c-0.498-0.234-0.748-0.352-1.246-0.591
							c0.616-0.153,0.925-0.231,1.541-0.39C695.124,730.501,695.219,730.183,695.41,729.547z"/>
					</g>
					<g>
						<path fill="#FFFFFF" d="M651.337,742.052c0.191,0.66,0.286,0.99,0.477,1.647c0.616,0.232,0.924,0.342,1.541,0.552
							c-0.499,0.192-0.748,0.284-1.247,0.463c0.191,0.656,0.286,0.984,0.477,1.638c-0.499-0.541-0.748-0.814-1.247-1.369
							c-0.498,0.169-0.747,0.25-1.246,0.405c0.19-0.507,0.285-0.761,0.475-1.27c-0.498-0.564-0.747-0.849-1.246-1.427
							c0.616,0.267,0.924,0.395,1.541,0.64C651.052,742.821,651.147,742.565,651.337,742.052z"/>
						<path fill="#FFFFFF" d="M661.209,744.812c0.191,0.62,0.286,0.93,0.477,1.549c0.616,0.104,0.924,0.152,1.54,0.238
							c-0.499,0.292-0.748,0.435-1.246,0.716c0.19,0.617,0.286,0.925,0.476,1.54c-0.499-0.439-0.748-0.661-1.247-1.112
							c-0.498,0.273-0.747,0.406-1.246,0.667c0.19-0.547,0.285-0.821,0.475-1.37c-0.499-0.458-0.748-0.691-1.246-1.162
							c0.616,0.134,0.925,0.197,1.541,0.312C660.924,745.64,661.019,745.364,661.209,744.812z"/>
						<path fill="#FFFFFF" d="M671.082,745.695c0.19,0.588,0.286,0.881,0.476,1.467c0.616,0,0.924-0.004,1.54-0.019
							c-0.498,0.374-0.748,0.559-1.246,0.924c0.19,0.585,0.285,0.877,0.475,1.46c-0.498-0.356-0.747-0.536-1.246-0.901
							c-0.499,0.359-0.748,0.535-1.247,0.884c0.191-0.581,0.286-0.872,0.477-1.454c-0.499-0.371-0.748-0.56-1.247-0.941
							c0.616,0.024,0.925,0.032,1.541,0.041C670.796,746.572,670.891,746.28,671.082,745.695z"/>
						<path fill="#FFFFFF" d="M680.953,745.062c0.19,0.562,0.286,0.842,0.476,1.403c0.616-0.083,0.925-0.127,1.541-0.221
							c-0.499,0.438-0.749,0.655-1.248,1.086c0.191,0.559,0.286,0.839,0.477,1.397c-0.499-0.29-0.748-0.437-1.247-0.735
							c-0.498,0.426-0.748,0.637-1.246,1.056c0.19-0.607,0.285-0.911,0.475-1.52c-0.498-0.303-0.747-0.456-1.246-0.766
							c0.616-0.064,0.925-0.099,1.541-0.175C680.668,745.978,680.763,745.673,680.953,745.062z"/>
						<path fill="#FFFFFF" d="M690.825,743.273c0.191,0.543,0.286,0.814,0.477,1.356c0.616-0.143,0.924-0.216,1.54-0.366
							c-0.499,0.484-0.748,0.724-1.247,1.203c0.191,0.541,0.286,0.812,0.477,1.352c-0.499-0.243-0.748-0.366-1.247-0.614
							c-0.498,0.475-0.747,0.712-1.245,1.182c0.19-0.627,0.285-0.941,0.475-1.568c-0.498-0.252-0.747-0.379-1.246-0.637
							c0.616-0.13,0.924-0.197,1.54-0.334C690.539,744.217,690.635,743.902,690.825,743.273z"/>
						<path fill="#FFFFFF" d="M646.288,735.454c0.19,0.683,0.286,1.024,0.476,1.705c0.616,0.305,0.924,0.452,1.541,0.734
							c-0.499,0.133-0.748,0.196-1.247,0.315c0.19,0.679,0.286,1.018,0.476,1.695c-0.499-0.6-0.748-0.904-1.246-1.52
							c-0.499,0.11-0.748,0.161-1.246,0.255c0.19-0.484,0.285-0.726,0.476-1.212c-0.498-0.624-0.748-0.94-1.246-1.58
							c0.616,0.344,0.924,0.51,1.541,0.83C646.002,736.189,646.097,735.944,646.288,735.454z"/>
						<path fill="#FFFFFF" d="M656.112,739.3c0.19,0.64,0.286,0.96,0.477,1.598c0.616,0.167,0.925,0.246,1.541,0.394
							c-0.499,0.242-0.748,0.36-1.247,0.59c0.191,0.637,0.286,0.955,0.477,1.59c-0.499-0.49-0.748-0.738-1.247-1.241
							c-0.498,0.222-0.747,0.33-1.246,0.539c0.19-0.528,0.285-0.792,0.475-1.322c-0.498-0.51-0.748-0.769-1.246-1.292
							c0.616,0.2,0.925,0.295,1.541,0.475C655.826,740.099,655.922,739.833,656.112,739.3z"/>
						<path fill="#FFFFFF" d="M665.936,741.103c0.191,0.604,0.286,0.906,0.477,1.508c0.616,0.051,0.924,0.073,1.54,0.108
							c-0.498,0.333-0.748,0.497-1.246,0.82c0.19,0.601,0.285,0.901,0.476,1.501c-0.499-0.397-0.748-0.599-1.246-1.007
							c-0.498,0.317-0.747,0.473-1.246,0.779c0.19-0.565,0.285-0.847,0.475-1.414c-0.498-0.414-0.747-0.624-1.245-1.049
							c0.616,0.079,0.924,0.114,1.54,0.175C665.651,741.956,665.746,741.672,665.936,741.103z"/>
						<path fill="#FFFFFF" d="M675.761,741.218c0.19,0.575,0.286,0.862,0.476,1.435c0.616-0.042,0.924-0.067,1.54-0.122
							c-0.498,0.406-0.747,0.607-1.246,1.005c0.19,0.572,0.286,0.858,0.476,1.43c-0.499-0.323-0.748-0.487-1.246-0.818
							c-0.499,0.393-0.748,0.588-1.246,0.973c0.19-0.595,0.286-0.893,0.476-1.489c-0.499-0.336-0.748-0.506-1.247-0.852
							c0.616-0.021,0.924-0.035,1.54-0.069C675.475,742.115,675.571,741.816,675.761,741.218z"/>
						<path fill="#FFFFFF" d="M685.586,740c0.19,0.552,0.285,0.828,0.475,1.38c0.616-0.114,0.925-0.173,1.541-0.296
							c-0.498,0.461-0.747,0.69-1.245,1.145c0.19,0.551,0.285,0.826,0.475,1.376c-0.498-0.267-0.747-0.402-1.246-0.675
							c-0.499,0.452-0.748,0.677-1.247,1.122c0.191-0.618,0.286-0.927,0.477-1.546c-0.499-0.276-0.748-0.416-1.247-0.698
							c0.616-0.098,0.924-0.149,1.541-0.257C685.3,740.931,685.395,740.621,685.586,740z"/>
						<path fill="#FFFFFF" d="M695.41,737.805c0.19,0.537,0.286,0.805,0.476,1.341c0.616-0.163,0.924-0.246,1.541-0.414
							c-0.499,0.498-0.748,0.746-1.247,1.241c0.19,0.536,0.286,0.803,0.476,1.338c-0.499-0.228-0.748-0.343-1.246-0.576
							c-0.499,0.493-0.748,0.738-1.247,1.227c0.19-0.635,0.286-0.952,0.476-1.587c-0.498-0.234-0.748-0.352-1.246-0.591
							c0.616-0.153,0.925-0.231,1.541-0.39C695.124,738.759,695.22,738.441,695.41,737.805z"/>
					</g>
					<path fill="#FFFFFF" d="M646.288,743.819c0.19,0.683,0.286,1.024,0.476,1.704c0.616,0.305,0.924,0.452,1.541,0.735
						c-0.499,0.134-0.748,0.197-1.247,0.315c0.19,0.679,0.286,1.018,0.476,1.695c-0.499-0.6-0.748-0.904-1.246-1.519
						c-0.499,0.109-0.748,0.16-1.246,0.254c0.19-0.484,0.285-0.726,0.476-1.212c-0.498-0.625-0.748-0.941-1.246-1.581
						c0.616,0.344,0.924,0.51,1.541,0.83C646.002,744.553,646.097,744.309,646.288,743.819z"/>
					<path fill="#FFFFFF" d="M656.112,747.664c0.19,0.64,0.286,0.959,0.477,1.597c0.616,0.167,0.925,0.246,1.541,0.394
						c-0.499,0.242-0.748,0.36-1.247,0.59c0.191,0.637,0.286,0.955,0.477,1.59c-0.499-0.49-0.748-0.738-1.247-1.241
						c-0.498,0.222-0.747,0.33-1.246,0.539c0.19-0.528,0.285-0.792,0.475-1.322c-0.498-0.51-0.748-0.769-1.246-1.293
						c0.616,0.2,0.925,0.295,1.541,0.475C655.826,748.463,655.922,748.197,656.112,747.664z"/>
					<path fill="#FFFFFF" d="M665.936,749.467c0.191,0.604,0.286,0.905,0.477,1.507c0.616,0.051,0.924,0.073,1.54,0.108
						c-0.498,0.334-0.748,0.498-1.246,0.821c0.19,0.601,0.285,0.901,0.476,1.501c-0.499-0.397-0.748-0.599-1.246-1.007
						c-0.498,0.317-0.747,0.472-1.246,0.778c0.19-0.565,0.285-0.847,0.475-1.414c-0.498-0.414-0.747-0.624-1.245-1.05
						c0.616,0.079,0.924,0.114,1.54,0.175C665.651,750.32,665.746,750.036,665.936,749.467z"/>
					<path fill="#FFFFFF" d="M675.761,749.582c0.19,0.574,0.286,0.861,0.476,1.435c0.616-0.042,0.924-0.067,1.54-0.122
						c-0.498,0.406-0.747,0.608-1.246,1.006c0.19,0.573,0.286,0.858,0.476,1.43c-0.499-0.323-0.748-0.486-1.246-0.818
						c-0.499,0.393-0.748,0.588-1.246,0.972c0.19-0.595,0.286-0.893,0.476-1.489c-0.499-0.336-0.748-0.507-1.247-0.852
						c0.616-0.021,0.924-0.034,1.54-0.069C675.475,750.479,675.571,750.18,675.761,749.582z"/>
					<path fill="#FFFFFF" d="M685.586,748.365c0.19,0.552,0.285,0.828,0.475,1.379c0.616-0.114,0.925-0.173,1.541-0.296
						c-0.498,0.461-0.747,0.69-1.245,1.146c0.19,0.551,0.285,0.826,0.475,1.376c-0.498-0.267-0.747-0.401-1.246-0.674
						c-0.499,0.452-0.748,0.676-1.247,1.122c0.191-0.618,0.286-0.927,0.477-1.547c-0.499-0.276-0.748-0.416-1.247-0.699
						c0.616-0.098,0.924-0.149,1.541-0.257C685.3,749.295,685.395,748.985,685.586,748.365z"/>
					<path fill="#FFFFFF" d="M695.41,746.169c0.19,0.537,0.286,0.805,0.476,1.341c0.616-0.163,0.924-0.246,1.541-0.414
						c-0.499,0.498-0.748,0.747-1.247,1.241c0.19,0.536,0.286,0.803,0.476,1.338c-0.499-0.228-0.748-0.343-1.246-0.575
						c-0.499,0.493-0.748,0.738-1.247,1.226c0.19-0.634,0.286-0.952,0.476-1.587c-0.498-0.234-0.748-0.352-1.246-0.591
						c0.616-0.152,0.925-0.231,1.541-0.39C695.124,747.123,695.22,746.805,695.41,746.169z"/>
				</g>
			</g>
		</g>
	</g>
</g>
<g id="it">
	<g id="it-line">
		<polygon fill="#B1C482" points="519.609,579.656 491.482,563.417 519.609,547.177 		"/>
		<rect x="503.5" y="463.416" fill="#B1C482" width="17" height="200"/>
	</g>
	
		<text id="it-date" transform="matrix(1 0 0 1 558.6957 571.6646)" fill="#B1C482" font-family="'Roboto-Medium'" font-size="28.2251">2012 - 2013</text>
	<g id="it-badge">
		<circle id="it-circle" fill="#B1C482" cx="311.581" cy="563.416" r="130.5"/>
		<g id="it-title">
			<text transform="matrix(1 0 0 1 287.6801 482.4225)" fill="#FFFFFF" font-family="'Roboto-Bold'" font-size="35">HTL Villach</text>
		</g>
		<g id="it-details">
			<rect x="216.474" y="609.316" fill="none" width="187" height="68"/>
			<text transform="matrix(1 0 0 1 226.6855 622.5454)" fill="#EBF4CE" font-family="'ArialMT'" font-size="18">Media Engineering</text>
			<text transform="matrix(1 0 0 1 245.5317 644.1471)" fill="#EBF4CE" font-family="'ArialMT'" font-size="18">Network Engineering</text>
			<g id="it-icon">
				<path fill="#F5FFFE" d="M352.894,538.91c-1.72,0-3.421,0.165-5.093,0.491c-0.761-20.507-17.684-36.958-38.376-36.958
					c-19.029,0-35.128,14.08-37.952,32.588c-15.343,0.375-27.709,12.972-27.709,28.401c0,15.666,12.745,28.41,28.41,28.41h23.771
					c1.796,0,3.254-1.456,3.254-3.254c0-1.797-1.458-3.254-3.254-3.254h-23.771c-12.076,0-21.902-9.824-21.902-21.902
					c0-12.076,9.826-21.902,21.902-21.902c0.593,0,1.22,0.03,1.917,0.089l3.298,0.285l0.229-3.303
					c1.155-16.627,15.127-29.651,31.806-29.651c17.586,0,31.895,14.308,31.895,31.895c0,0.807-0.039,1.672-0.119,2.642l-0.426,5.193
					l4.854-1.897c2.324-0.906,4.769-1.366,7.267-1.366c11.023,0,19.993,8.969,19.993,19.992c0,11.025-8.97,19.995-19.993,19.995
					c-0.29,0-8.942-0.02-17.559-0.036c-8.553-0.017-17.072-0.034-17.355-0.034c-2.025,0-3.083-0.977-3.146-2.898v-35.128
					l3.532,4.195c1.157,1.375,3.21,1.551,4.585,0.394c1.375-1.157,1.551-3.21,0.392-4.584l-7.826-9.299
					c-0.985-1.169-2.403-1.841-3.886-1.841c-1.485,0-2.9,0.671-3.888,1.841l-7.826,9.299c-1.157,1.375-0.981,3.427,0.394,4.584
					c0.61,0.513,1.354,0.765,2.095,0.765c0.926,0,1.847-0.393,2.489-1.159l3.428-4.072v35.036c0,3.767,2.572,9.375,9.657,9.375
					c0.284,0,8.794,0.017,17.343,0.034c8.622,0.017,17.279,0.034,17.569,0.034c14.614,0,26.503-11.887,26.503-26.501
					C379.398,550.797,367.508,538.91,352.894,538.91L352.894,538.91z M352.894,538.91"/>
			</g>
		</g>
	</g>
</g>
<g id="gym">
	<g id="gym-line">
		<rect x="503.5" y="263.416" fill="#EAB83D" width="17" height="200"/>
		<polygon fill="#EAB83D" points="503.5,379.655 531.627,363.416 503.5,347.176 		"/>
	</g>
	
		<text id="gym-date" transform="matrix(1 0 0 1 313.5809 371.6641)" fill="#EAB83D" font-family="'Roboto-Medium'" font-size="28.2251">2008 - 2012</text>
	<g id="gym-badge">
		<circle id="gym-circle" fill="#EAB83D" cx="712.667" cy="363.416" r="130.5"/>
		<g id="gym-title">
			<text transform="matrix(1 0 0 1 684.1306 282.4221)" fill="#FFFFFF" font-family="'Roboto-Bold'" font-size="35">Gymnasium</text>
		</g>
		<g id="gym-details">
			<g id="gym-icon">
				<g>
					<g>
						<path fill="#CC3300" d="M746.978,321.897h-67.354c-0.097,0-0.192,0.01-0.288,0.015v96.033
							c0.096,0.005,0.191,0.014,0.288,0.014h67.354c3.166,0,5.757-2.573,5.757-5.718v-84.626
							C752.735,324.47,750.145,321.897,746.978,321.897z"/>
						<path opacity="0.65" fill="#CC5333" enable-background="new    " d="M746.978,321.897h-67.354
							c-0.097,0-0.192,0.01-0.288,0.015v96.033c0.096,0.005,0.191,0.014,0.288,0.014h67.354c3.166,0,5.757-2.573,5.757-5.718
							v-84.626C752.735,324.47,750.145,321.897,746.978,321.897z"/>
						<g>
							<path fill="#FFFFFF" d="M751.016,400.351v-0.14h-71.307v0.012c-4.293,0.131-7.735,3.706-7.735,8.107
								c0,4.484,3.493,7.935,7.898,7.935c0.549,0,1.139,0.039,1.68,0.021h69.313c-3.638-0.755-5.086-4.029-5.086-7.955
								C745.779,404.35,747.304,401.046,751.016,400.351z"/>
							<g>
								<g>
									<g>
										<defs>
											<path id="SVGID_1_" d="M751.016,400.351v-0.14h-71.307v0.012c-4.293,0.131-7.735,3.706-7.735,8.107
												c0,4.484,3.493,7.935,7.898,7.935c0.549,0,1.06,0.025,1.68,0.021h69.313c-3.638-0.755-5.086-4.029-5.086-7.955
												C745.779,404.35,747.304,401.046,751.016,400.351z"/>
										</defs>
										<clipPath id="SVGID_2_">
											<use xlink:href="#SVGID_1_"  overflow="visible"/>
										</clipPath>
										<g clip-path="url(#SVGID_2_)">
											<rect x="671.651" y="402.226" fill="#CCD4D3" width="80.036" height="0.779"/>
											<rect x="671.651" y="406.163" fill="#CCD4D3" width="80.036" height="0.779"/>
											<rect x="671.651" y="410.1" fill="#CCD4D3" width="80.036" height="0.779"/>
											<rect x="671.651" y="412.068" fill="#CCD4D3" width="80.036" height="0.779"/>
											<rect x="671.651" y="414.037" fill="#CCD4D3" width="80.036" height="0.779"/>
											<rect x="671.651" y="408.132" fill="#CCD4D3" width="80.036" height="0.779"/>
											<rect x="671.651" y="404.195" fill="#CCD4D3" width="80.036" height="0.779"/>
										</g>
									</g>
								</g>
							</g>
						</g>
						<g>
							<path fill="#CC3300" d="M747.196,305.822h-67.354c-0.097,0-0.192,0.01-0.288,0.014v96.033
								c0.096,0.005,0.191,0.014,0.288,0.014h67.354c3.166,0,5.757-2.573,5.757-5.718V311.54
								C752.952,308.395,750.362,305.822,747.196,305.822z"/>
						</g>
						<path fill="#3E2723" d="M679.359,416.271c-0.065,0.002-0.206-0.039-0.271-0.041c-2.715-0.081-7.005-3.392-7.005-7.426
							s3.026-6.992,7.06-6.992c0.066,0,0.37,0.037,0.435,0.041l-0.24-79.942c0.072-0.004,0.145-0.008,0.217-0.011v-16.057
							c-0.137-0.006-0.273-0.021-0.412-0.021c-4.066,0-7.883,2.665-8.503,6.494c-0.138,0.854-0.15,2.782-0.137,3.459
							c0,0-0.184,92.955-0.184,93.342s0.033,0.764,0.081,1.138v0.247h0.038c0.666,4.214,4.304,7.44,8.705,7.44
							c0.066,0,0.129-0.008,0.195-0.01L679.359,416.271z"/>
					</g>
					<polygon fill="#FF0000" points="686.419,421.009 683.106,418.402 679.793,421.009 679.793,414.601 679.793,408.193 
						683.106,408.193 686.419,408.193 686.419,414.601 					"/>
					<path opacity="0.35" fill="#CC5333" enable-background="new    " d="M715.201,305.822h-35.36c-0.097,0-0.192,0.01-0.288,0.015
						v96.033c0.096,0.005,0.191,0.015,0.288,0.015h35.36V305.822z"/>
				</g>
				<path fill="#3E2723" d="M735.66,328.467h-42.185c-1.641,0-2.984-1.343-2.984-2.984v-0.571c0-1.641,1.343-2.984,2.984-2.984
					h42.185c1.641,0,2.984,1.343,2.984,2.984v0.571C738.644,327.124,737.301,328.467,735.66,328.467z"/>
				<path fill="#3E2723" d="M725.387,340.654h-21.046c-1.343,0-2.442-1.099-2.442-2.442v-0.467c0-1.343,1.099-2.442,2.442-2.442
					h21.046c1.343,0,2.442,1.099,2.442,2.442v0.467C727.829,339.555,726.73,340.654,725.387,340.654z"/>
			</g>
			<rect x="618.135" y="409.316" fill="none" width="187" height="68"/>
			<text transform="matrix(1 0 0 1 631.8405 422.545)" fill="#3E2723" font-family="'Roboto-Light'" font-size="18">BG/BRG</text>
			<text transform="matrix(1 0 0 1 697.7675 422.545)" fill="#3E2723" font-family="'Roboto-Regular'" font-size="18"> </text>
			<text transform="matrix(1 0 0 1 702.2405 422.545)" fill="#3E2723" font-family="'Roboto-Black'" font-size="18">Perau</text>
			<text transform="matrix(1 0 0 1 638.9232 444.1467)" fill="#3E2723" font-family="'Roboto-Regular'" font-size="18">VILLACH</text>
		</g>
	</g>
</g>
<g id="vs">
	<g id="vs-line">
		<rect x="503.5" y="63.416" fill="#D1652F" width="17" height="200"/>
		<polygon fill="#D1652F" points="520.5,179.655 492.373,163.416 520.5,147.176 		"/>
	</g>
	
		<text id="vs-date" transform="matrix(1 0 0 1 560.0004 171.6638)" fill="#D1652F" font-family="'Roboto-Medium'" font-size="28.2251">2004 - 2008</text>
	<g id="vs-badge">
		<circle id="vs-circle" fill="#D1652F" cx="311.581" cy="163.416" r="130.5"/>
		<g id="vs-title">
			<text transform="matrix(1 0 0 1 284.416 82.4214)" fill="#FFFFFF" font-family="'Roboto-Bold'" font-size="35">Volkschule</text>
		</g>
		<g id="vs-details">
			<g id="vs-icon">
				<path fill="#FFD8C5" d="M296.757,203.813c-0.373-0.494-0.563-0.991-0.665-1.442c1.281-0.233,2.297-0.314,2.297-0.314
					l1.509-17.233l7.539-0.04c0,0-1.465,13.726-2.897,19.684C302.397,204.682,297.658,205.004,296.757,203.813z"/>
				<path fill="#FFD8C5" d="M323.908,204.574c-0.6-0.162-1.051-0.43-1.411-0.724c0.866-0.972,1.614-1.664,1.614-1.664l-9.427-14.504
					l5.916-4.674c0,0,7.297,11.709,9.843,17.287C328.886,201.782,325.354,204.96,323.908,204.574z"/>
				<path fill="#FFD8C5" d="M298.342,155.1l-15.281,2.791c0,0,1.937,4.923,0.278,4.229c-1.66-0.695-2.045-2.091-2.045-2.091
					s-2.097,4.541-3.463,3.073c-1.364-1.467,0.93-3.95,0.93-3.95s-3.606,2.317-4.547,0.616c-0.937-1.702,2.167-3.023,2.167-3.023
					s-2.92,0.443-2.991-1.291c-0.069-1.74,2.676-1.086,2.676-1.086s-0.504-1.722,0.21-2.947c0.656-1.133,2.328-0.078,3.654,1.247
					c0.11,0.109,0.219,0.22,0.321,0.333c1.367,1.471,13.417-4.563,13.417-4.563L298.342,155.1z"/>
				<path fill="#A6CDEC" d="M308.849,144.211l-18.777,4.323l3.573,8.054l5.545-1.678l-0.442,20.002l27.066-8.119l-1.261-13.652
					l6.074,3.377l2.342-8.297C332.968,148.22,314.253,143.535,308.849,144.211z"/>
				<path fill="#FFD8C5" d="M307.98,139.907l-0.266,6.319c0,0,1.043,2.813,4.145,2.63c3.1-0.184,4.415-2.256,4.415-2.256
					l-0.51-6.632L307.98,139.907z"/>
				<path fill="#386A93" d="M298.986,158.558l-1.484,36.245l10.431,0.996l3.798-13.714l8.451,14.81l7.477-3.092
					c0,0-0.982-18.211-1.057-20.978c-0.073-2.766-1.232-13.853-1.232-13.853L298.986,158.558z"/>
				<path fill="#BFA4AC" d="M319.15,145.75c0,0-0.726,0.818-1.019,3.635c-0.291,2.818,0.324,10.867,0.324,10.867l3.031,0.222
					c0,0,0.612-13.904,0.195-14.574C321.264,145.228,319.908,145.447,319.15,145.75z"/>
				<path fill="#BFA4AC" d="M302.3,145.033c0,0-0.724,0.818-1.017,3.636c-0.292,2.818,0.321,10.867,0.321,10.867l3.034,0.221
					c0,0,0.613-13.905,0.195-14.574C304.416,144.511,303.058,144.73,302.3,145.033z"/>
				<path fill="#5A3D1B" d="M290.052,116.792c0,0,0.511-15.615,14.476-24.189c11.278-6.918,23.7-0.449,33.894,7.814
					c0,0,8.073-0.201,6.585,15.524c-1.486,15.721-8.804,17.768-8.804,17.768s-27.333-11.703-28.231-11.964
					C307.073,121.482,290.608,123.864,290.052,116.792z"/>
				<path fill="#FFD8C5" d="M321.813,102.869c-7.035-0.784-24.987-3.118-30.901,13.298c0,0-4.187-1.323-4.654,1.948
					c-0.472,3.266,4.274,3.681,4.274,3.681s-1.454,16.609,19.78,23.216c21.231,6.607,25.737-7.457,25.737-7.457
					s5.109,2.177,6.74-1.726c1.629-3.906-3.728-4.891-3.728-4.891S346.999,105.679,321.813,102.869z"/>
				<path fill="#F99DA4" d="M301.846,129.174c-0.409,1.164-2.046,1.787-3.654,1.381c-1.615-0.401-2.592-1.678-2.182-2.846
					c0.409-1.175,2.047-1.796,3.657-1.387C301.277,126.727,302.256,128.003,301.846,129.174z"/>
				<path fill="#F99DA4" d="M333.395,136.211c-0.409,1.169-2.047,1.791-3.657,1.383c-1.612-0.4-2.586-1.678-2.18-2.848
					c0.411-1.174,2.049-1.794,3.66-1.387C332.825,133.766,333.802,135.041,333.395,136.211z"/>
				<path fill="#DDB59F" d="M315.787,131.401c0,0,0.154,1.017-0.585,1.31c-0.737,0.297,0.886,0.822,1.216-0.128
					C316.752,131.636,316.498,131.3,315.787,131.401z"/>
				<path fill="#5A3D1B" d="M290.912,116.168c0,0,11.252-4.184,14.34-10.951c0,0,0.915,11.001,6.46,14.073
					c0,0-1.32-3.709-0.468-5.426c0,0,5.261,8.392,12.928,10.533c0,0-3.533-4.321-2.944-7.455c0,0,3.932,8.054,12.69,10.039
					c0,0-1.576-2.976-1.6-3.898c0,0,6.128,4.74,6.741,7.859c0,0,6.479-12.6,1.05-19.79c-5.43-7.191-21.841-13.614-27.374-13.467
					C307.201,97.831,289.978,106.78,290.912,116.168z"/>
				<circle fill="#FFFFFF" cx="302.941" cy="160.948" r="1.314"/>
				<circle fill="#FFFFFF" cx="319.615" cy="160.722" r="1.315"/>
				<path fill="#BFA4AC" d="M304.753,165.288c0.517-0.095,16.311-0.077,16.311-0.077s-4.57,6.256-9.704,5.705
					C306.229,170.37,304.753,165.288,304.753,165.288z"/>
				<polygon fill="#56B1D1" points="297.162,190.671 296.862,195.019 308.649,196.154 309.207,192.148 				"/>
				<polygon fill="#56B1D1" points="317.693,193.536 319.836,197.203 328.775,193.141 327.26,189.356 				"/>
				<g>
					<g>
						<path d="M323.856,131.733c-0.804,0.099-1.537-0.473-1.634-1.277c-0.102-0.805,0.475-1.537,1.277-1.636
							c0.807-0.099,1.537,0.473,1.636,1.279C325.233,130.901,324.66,131.636,323.856,131.733z"/>
					</g>
					<circle fill="#FFFFFF" cx="323.808" cy="130.591" r="0.258"/>
				</g>
				<g>
					<g>
						<circle cx="306.33" cy="124.949" r="1.467"/>
					</g>
					<circle fill="#FFFFFF" cx="306.46" cy="125.26" r="0.258"/>
				</g>
				<path fill="#FFD8C5" d="M329.75,155.29l12.218,4.181c0,0-2.373,4.729-0.655,4.187c1.712-0.543,2.218-1.899,2.218-1.899
					s1.687,4.713,3.178,3.373c1.489-1.34-0.57-4.019-0.57-4.019s3.381,2.632,4.468,1.021c1.084-1.609-1.882-3.205-1.882-3.205
					s2.864,0.704,3.094-1.019c0.224-1.724-2.567-1.321-2.567-1.321s0.655-1.669,0.057-2.953c-0.556-1.186-2.315-0.285-3.756,0.913
					c-0.119,0.097-0.237,0.202-0.349,0.305c-1.49,1.336-12.876-6.315-12.876-6.315L329.75,155.29z"/>
				<path fill="#D84853" d="M308.495,134.198c0,0,2.264,5.613,10.919,3.894C319.414,138.092,310.384,144.572,308.495,134.198z"/>
			</g>
			<text transform="matrix(1 0 0 1 219.7134 222.5444)" fill="#E8AD67" font-family="'Roboto-Regular'" font-size="18">Montessori VS </text>
			<text transform="matrix(1 0 0 1 343.0414 222.5444)" fill="#E8AD67" font-family="'Roboto-Bold'" font-size="18">St. Andrae</text>
			<text id="villach" transform="matrix(1 0 0 1 249.6372 244.146)" fill="#E8AD67" font-family="'Roboto-Bold'" font-size="18">VILLACH</text>
		</g>
	</g>
</g>
</svg>
